<?xml version="1.0" encoding="utf-8"?>
<!-- Generator: Adobe Illustrator 22.1.0, SVG Export Plug-In . SVG Version: 6.00 Build 0)  -->
<svg version="1.1" id="Layer_1" xmlns="http://www.w3.org/2000/svg" xmlns:xlink="http://www.w3.org/1999/xlink" x="0px" y="0px"
	 viewBox="0 0 468 316" style="enable-background:new 0 0 468 316;" xml:space="preserve">
<style type="text/css">
	.st0{opacity:0.2;fill:url(#SVGID_1_);enable-background:new    ;}
	.st1{opacity:0.3;fill:url(#SVGID_2_);enable-background:new    ;}
	.st2{opacity:0.34;fill:url(#SVGID_3_);enable-background:new    ;}
	.st3{fill:#FFFFFF;}
	.st4{fill:none;stroke:#FFFFFF;stroke-width:2.551;stroke-linecap:round;stroke-linejoin:round;}
	.st5{fill:none;stroke:#FFFFFF;stroke-width:2.504;stroke-linecap:round;stroke-linejoin:round;}
	.st6{fill:none;stroke:#FFFFFF;stroke-width:2.5;stroke-linecap:round;stroke-linejoin:round;}
	.st7{fill:none;stroke:#FFFFFF;stroke-width:2.631;stroke-linecap:round;stroke-linejoin:round;}
</style>
<g>
	
		<linearGradient id="SVGID_1_" gradientUnits="userSpaceOnUse" x1="-70.4384" y1="630.8424" x2="-70.3217" y2="629.9537" gradientTransform="matrix(468 0 0 -468 33157 295147)">
		<stop  offset="0" style="stop-color:#EAE0DB"/>
		<stop  offset="1" style="stop-color:#C5AFA5;stop-opacity:0"/>
	</linearGradient>
	<circle class="st0" cx="234" cy="234" r="234"/>
	
		<linearGradient id="SVGID_2_" gradientUnits="userSpaceOnUse" x1="-70.3633" y1="630.6721" x2="-70.2466" y2="629.7833" gradientTransform="matrix(313 0 0 -313 22230 197421)">
		<stop  offset="0" style="stop-color:#EAE0DB"/>
		<stop  offset="1" style="stop-color:#C5AFA5;stop-opacity:0"/>
	</linearGradient>
	<circle class="st1" cx="234.5" cy="235.5" r="156.5"/>
	
		<linearGradient id="SVGID_3_" gradientUnits="userSpaceOnUse" x1="-70.2656" y1="629.6603" x2="-69.6523" y2="628.8839" gradientTransform="matrix(131 0 0 -131 9398 82658)">
		<stop  offset="0" style="stop-color:#EAE0DB"/>
		<stop  offset="1" style="stop-color:#D1BEB5;stop-opacity:0"/>
	</linearGradient>
	<circle class="st2" cx="233.5" cy="223.5" r="65.5"/>
	<path class="st3" d="M238.9,208.8c1.9-3.3,2.7-4.1,4.1-4.1c1.4,0,2.2,0.9,2.2,2.9v20.7c0,1.9-0.8,2.9-2.2,2.9
		c-1.3,0-2.2-0.8-4.1-4.1c-1.2-2-3.2-5.5-5.3-9.1C236.4,213.2,238.6,209.4,238.9,208.8 M221.9,238.7c1.7-3,5.5-9.6,9.1-15.9
		c1.6,2.7,3,5.1,3.9,6.7c1.5,2.6,3.7,6.5,8.2,6.5c4.1,0,7-3.1,7-7.7v-20.7c0-4.5-2.9-7.7-7-7.7c-4.5,0-6.7,3.9-8.2,6.5
		c-0.3,0.5-1.8,3.1-3.8,6.7c-0.6-1-1.1-2-1.7-2.9c-2.8-4.8-8.2-4.9-11,0c-1.9,3.2-9.6,16.6-13.4,23.3h5.5c2.4-4.3,10-17.6,11.6-20.3
		c1.1-1.9,2.4-1.9,3.5,0c0.8,1.4,1.7,3,2.7,4.7c-4,7-8.7,15.2-10.8,18.8c-2.6,4.5-0.1,9.1,4.9,9.1H263v-4.8h-39.9
		C221.6,241.2,221.3,239.9,221.9,238.7"/>
	<g transform="translate(67 64)">
		<g transform="translate(0 95)">
			<path class="st4" d="M31.6,11.7c1.9,2.4,4.3,5.7,5.7,8.4c2.9,5.7,5.7,13.2,1.5,19c-1.2,1.7-3.3,3.5-5.2,4.3
				c-2,0.8-4.7,1.7-6.9,1.7c-4.1,0-8.2-1.8-11-4.6c-7.2-7.2-1.8-17.8,2.9-24.7c1.5-2.3,3.3-4.5,5.2-6.5l2-2.1"/>
			<path class="st5" d="M25.4,29.1c-1.2,0-2.1-0.9-2.1-2.1c0-1.2,0.9-2.1,2.1-2.1h3.8 M25.4,29.1h2.4c1.2,0,2.1,0.9,2.1,2.1
				c0,1.2-0.9,2.1-2.1,2.1H24 M26.6,23v12.5"/>
		</g>
		<g transform="translate(73)">
			<path class="st6" d="M9.4,21.8h33.8v-3.7c0-2-1.7-3.7-3.7-3.7H13.1c-2,0-3.7,1.7-3.7,3.7v18.5c0,2,1.7,3.7,3.7,3.7h26.5
				c2,0,3.7-1.7,3.7-3.7v-8.8 M22.1,32.7h-6.2"/>
		</g>
		<g transform="translate(209 4)">
			<path class="st6" d="M14.1,38.8v-4.4v4.2c0,2.5,2,4.5,4.5,4.5h14.4c2.5,0,4.5-2,4.5-4.5V11c0-2.5-2-4.5-4.5-4.5H18.6
				c-2.5,0-4.5,2-4.5,4.5v18.4"/>
			<path class="st6" d="M24.5,20c-1.3,0-2.3-1-2.3-2.3c0-1.3,1-2.3,2.3-2.3h4.1 M24.5,20h2.6c1.3,0,2.3,1,2.3,2.3
				c0,1.3-1,2.3-2.3,2.3H23 M25.8,13.4v13.5"/>
			<circle class="st3" cx="25.8" cy="38.7" r="1.5"/>
			<path class="st6" d="M14.1,34.4h18.3"/>
		</g>
		<g transform="translate(288 95)">
			<path class="st7" d="M40.6,24.4v10.5c0,2.2-7.2,4.9-15,4.9c-7.8,0-15-2.7-15-4.9V24.4"/>
			<polyline class="st7" points="22.6,11.5 3.3,20.5 25.6,28.4 47.9,20.5 28.3,11.3 			"/>
			<path class="st7" d="M6.8,29.1v-6.6"/>
		</g>
	</g>
</g>
</svg>
