<svg xmlns="http://www.w3.org/2000/svg" xmlns:xlink="http://www.w3.org/1999/xlink" width="468" height="468" viewBox="0 0 468 468" style="">
  <defs>
    <linearGradient id="arcus-products-a" x1="34.795%" x2="46.467%" y1="-17.832%" y2="71.04%">
      <stop offset="0%" stop-color="#EAE0DB"></stop>
      <stop offset="100%" stop-color="#C5AFA5"></stop>
    </linearGradient>
    <linearGradient id="arcus-products-b" x1="17.118%" x2="78.452%" y1="12.741%" y2="90.384%">
      <stop offset="0%" stop-color="#EAE0DB"></stop>
      <stop offset="100%" stop-color="#D1BEB5"></stop>
    </linearGradient>
    <path id="arcus-products-c" width="52" height="52" d="M0 0 L52 0 L52 52 L0 52 Z" class="MPYJEOvE_0"></path>
    <path id="arcus-products-d" width="52" height="52" d="M0 0 L52 0 L52 52 L0 52 Z" class="MPYJEOvE_1"></path>
    <path id="arcus-products-e" width="52" height="52" d="M0 0 L52 0 L52 52 L0 52 Z" class="MPYJEOvE_2"></path>
    <path id="arcus-products-f" width="52" height="52" d="M0 0 L52 0 L52 52 L0 52 Z" class="MPYJEOvE_3"></path>
  </defs>
  <g fill="none" fill-rule="evenodd">
    <path fill="url(#arcus-products-a)" opacity=".2" d="M0,234A234,234 0,1,1 468,234A234,234 0,1,1 0,234" class="MPYJEOvE_4"></path>
    <path fill="url(#arcus-products-a)" opacity=".3" d="M78,235.5A156.5,156.5 0,1,1 391,235.5A156.5,156.5 0,1,1 78,235.5" class="MPYJEOvE_5"></path>
    <path fill="url(#arcus-products-b)" opacity=".34" d="M168,223.5A65.5,65.5 0,1,1 299,223.5A65.5,65.5 0,1,1 168,223.5" class="MPYJEOvE_6"></path>
    <path fill="#FFF" d="M33.9260133,8.80458122 C35.8444811,5.47111279 36.6634382,4.6779661 38.0062035,4.6779661 C39.4122149,4.6779661 40.2133333,5.62073275 40.2133333,7.55935701 L40.2133333,28.3050498 C40.2133333,30.2404564 39.4122149,31.1864407 38.0062035,31.1864407 C36.6634382,31.1864407 35.8461028,30.3949028 33.9260133,27.0662608 C32.7648781,25.0391516 30.7442434,21.5801955 28.6133333,17.9217461 C31.378327,13.1741277 33.5870786,9.39179935 33.9260133,8.80458122 M16.9431002,38.6645744 C18.6012043,35.7002476 22.4172467,29.0593856 26.029831,22.7922726 C27.5805988,25.4614499 29.0096122,27.9108693 29.8971384,29.4732364 C31.3870291,32.0846672 33.6122528,36.0018133 38.0803226,36.0018133 C42.1895371,36.0018133 45.0411557,32.8674548 45.0411557,28.342365 L45.0411557,7.65784427 C45.0411557,3.13275447 42.1895371,0 38.0803226,0 C33.6122528,0 31.383825,3.92356244 29.9003425,6.52376469 C29.6263949,7.00177843 28.1092697,9.64368658 26.0538615,13.2175611 C25.4755276,12.2118074 24.913214,11.2285107 24.3845431,10.2997524 C21.6098221,5.46347247 16.1677163,5.43459916 13.3833831,10.2933361 C11.5250249,13.5367716 3.82405259,26.9115319 0,33.6085365 L5.52380952,33.6085365 C7.96851177,29.266311 15.5605458,16.0054399 17.1033035,13.347491 C18.2183184,11.4322279 19.5464037,11.4322279 20.6085515,13.347491 C21.3871395,14.7430345 22.3115125,16.3631482 23.2791404,18.0442166 C19.266048,25.021934 14.5400508,33.2347875 12.4317755,36.8760331 C9.84289029,41.3530007 12.3789084,46 17.3676389,46 L58,46 L58,41.2150504 L18.1125842,41.2150504 C16.6258977,41.2150504 16.2542261,39.8836698 16.9431002,38.6645744" transform="translate(205 200)" class="MPYJEOvE_7"></path>
    <g transform="translate(67 64)">
      <g transform="translate(0 95)" style="mix-blend-mode:luminosity">
        <use fill="#595959" opacity="0" xlink:href="#arcus-products-c"></use>
        <path stroke="#FFF" stroke-linecap="round" stroke-linejoin="round" stroke-width="2.551" d="M31.6025,11.7412 C33.4565,14.1002 35.9525,17.4702 37.3105,20.1522 C40.2155,25.8882 43.0575,33.3082 38.8145,39.1372 C37.6085,40.7942 35.5095,42.6602 33.6095,43.4752 C31.6345,44.3222 28.9145,45.1842 26.7465,45.1842 C22.6845,45.1842 18.5925,43.4202 15.7595,40.5572 C8.5985,33.3262 13.9575,22.7812 18.6265,15.8742 C20.1645,13.5982 21.9125,11.4042 23.7775,9.3872 L25.7925,7.2752" class="MPYJEOvE_8"></path>
        <path stroke="#FFF" stroke-linecap="round" stroke-linejoin="round" stroke-width="2.504" d="M25.4199 29.0967C24.2519 29.0967 23.3049 28.1497 23.3049 26.9817 23.3049 25.8127 24.2519 24.8657 25.4199 24.8657L29.2649 24.8657M25.4199 29.0967L27.8249 29.0967C28.9939 29.0967 29.9409 30.0437 29.9409 31.2127 29.9409 32.3817 28.9939 33.3277 27.8249 33.3277L23.9819 33.3277M26.623 22.9678L26.623 35.4908" class="MPYJEOvE_9"></path>
      </g>
      <g transform="translate(73)" style="mix-blend-mode:luminosity">
        <use fill="#595959" opacity="0" xlink:href="#arcus-products-d"></use>
        <path stroke="#FFF" stroke-linecap="round" stroke-linejoin="round" stroke-width="2.5" d="M9.437325 21.8194375L43.27095 21.8194375 43.27095 18.1278125C43.27095 16.0899375 41.618075 14.4370625 39.5802 14.4370625L13.128075 14.4370625C11.0902 14.4370625 9.437325 16.0899375 9.437325 18.1278125L9.437325 36.5833125C9.437325 38.6211875 11.0902 40.2740625 13.128075 40.2740625L39.5802 40.2740625C41.618075 40.2740625 43.27095 38.6211875 43.27095 36.5833125L43.27095 27.7694375M22.10645 32.709075L15.926325 32.709075" class="MPYJEOvE_10"></path>
      </g>
      <g transform="translate(209 4)" style="mix-blend-mode:luminosity">
        <use fill="#595959" opacity="0" xlink:href="#arcus-products-e"></use>
        <path stroke="#FFF" stroke-linecap="round" stroke-linejoin="round" stroke-width="2.5" d="M14.080377,38.7965793 L14.080377,34.3615448 L14.080377,38.5623724 C14.080377,41.0707862 16.1137563,43.1033379 18.6213425,43.1033379 L33.050308,43.1033379 C35.5578943,43.1033379 37.5912736,41.0699586 37.5912736,38.5623724 L37.5912736,10.9540966 C37.5912736,8.44651034 35.5578943,6.41395862 33.050308,6.41395862 L18.6213425,6.41395862 C16.1137563,6.41395862 14.080377,8.44651034 14.080377,10.9540966 L14.080377,29.3099586" class="MPYJEOvE_11"></path>
        <path stroke="#FFF" stroke-linecap="round" stroke-linejoin="round" stroke-width="2.5" d="M24.5432184 19.9754483C23.2869425 19.9754483 22.2698391 18.9575172 22.2698391 17.702069 22.2698391 16.4457931 23.2869425 15.4278621 24.5432184 15.4278621L28.6745287 15.4278621M24.5432184 19.9754483L27.1285977 19.9754483C28.384046 19.9754483 29.401977 20.9925517 29.401977 22.2488276 29.401977 23.5051034 28.384046 24.5222069 27.1285977 24.5222069L22.9972874 24.5222069M25.8354943 13.3878621L25.8354943 26.8485517" class="MPYJEOvE_12"></path>
        <path fill="#FFF" d="M24.301000000000002,38.69A1.531,1.531 0,1,1 27.363,38.69A1.531,1.531 0,1,1 24.301000000000002,38.69" class="MPYJEOvE_13"></path>
        <path stroke="#FFF" stroke-linecap="round" stroke-linejoin="round" stroke-width="2.5" d="M14.080377,34.3612138 L32.4254805,34.3612138" class="MPYJEOvE_14"></path>
      </g>
      <g transform="translate(288 95)" style="mix-blend-mode:luminosity">
        <use fill="#595959" opacity="0" xlink:href="#arcus-products-f"></use>
        <path stroke="#FFF" stroke-linecap="round" stroke-linejoin="round" stroke-width="2.631" d="M40.6289,24.3603 L40.6289,34.8823 C40.6289,37.1123 33.4199,39.8043 25.6109,39.8043 C17.8029,39.8043 10.5959,37.1123 10.5959,34.8823 L10.5959,24.3603" class="MPYJEOvE_15"></path>
        <path stroke="#FFF" stroke-linecap="round" stroke-linejoin="round" stroke-width="2.631" d="M22.581,11.465L3.315,20.45L25.601,28.354L47.908,20.45L28.303,11.316" class="MPYJEOvE_16"></path>
        <path stroke="#FFF" stroke-linecap="round" stroke-linejoin="round" stroke-width="2.631" d="M6.752,29.1211 L6.752,22.5451" class="MPYJEOvE_17"></path>
      </g>
    </g>
  </g>
<style data-made-with="vivus-instant">.MPYJEOvE_0{stroke-dasharray:208 210;stroke-dashoffset:209;animation:MPYJEOvE_draw 2000ms linear 0ms forwards;}.MPYJEOvE_1{stroke-dasharray:208 210;stroke-dashoffset:209;animation:MPYJEOvE_draw 2000ms linear 58ms forwards;}.MPYJEOvE_2{stroke-dasharray:208 210;stroke-dashoffset:209;animation:MPYJEOvE_draw 2000ms linear 117ms forwards;}.MPYJEOvE_3{stroke-dasharray:208 210;stroke-dashoffset:209;animation:MPYJEOvE_draw 2000ms linear 176ms forwards;}.MPYJEOvE_4{stroke-dasharray:1471 1473;stroke-dashoffset:1472;animation:MPYJEOvE_draw 2000ms linear 235ms forwards;}.MPYJEOvE_5{stroke-dasharray:984 986;stroke-dashoffset:985;animation:MPYJEOvE_draw 2000ms linear 294ms forwards;}.MPYJEOvE_6{stroke-dasharray:412 414;stroke-dashoffset:413;animation:MPYJEOvE_draw 2000ms linear 352ms forwards;}.MPYJEOvE_7{stroke-dasharray:369 371;stroke-dashoffset:370;animation:MPYJEOvE_draw 2000ms linear 411ms forwards;}.MPYJEOvE_8{stroke-dasharray:95 97;stroke-dashoffset:96;animation:MPYJEOvE_draw 2000ms linear 470ms forwards;}.MPYJEOvE_9{stroke-dasharray:36 38;stroke-dashoffset:37;animation:MPYJEOvE_draw 2000ms linear 529ms forwards;}.MPYJEOvE_10{stroke-dasharray:148 150;stroke-dashoffset:149;animation:MPYJEOvE_draw 2000ms linear 588ms forwards;}.MPYJEOvE_11{stroke-dasharray:112 114;stroke-dashoffset:113;animation:MPYJEOvE_draw 2000ms linear 647ms forwards;}.MPYJEOvE_12{stroke-dasharray:39 41;stroke-dashoffset:40;animation:MPYJEOvE_draw 2000ms linear 705ms forwards;}.MPYJEOvE_13{stroke-dasharray:10 12;stroke-dashoffset:11;animation:MPYJEOvE_draw 2000ms linear 764ms forwards;}.MPYJEOvE_14{stroke-dasharray:19 21;stroke-dashoffset:20;animation:MPYJEOvE_draw 2000ms linear 823ms forwards;}.MPYJEOvE_15{stroke-dasharray:55 57;stroke-dashoffset:56;animation:MPYJEOvE_draw 2000ms linear 882ms forwards;}.MPYJEOvE_16{stroke-dasharray:91 93;stroke-dashoffset:92;animation:MPYJEOvE_draw 2000ms linear 941ms forwards;}.MPYJEOvE_17{stroke-dasharray:7 9;stroke-dashoffset:8;animation:MPYJEOvE_draw 2000ms linear 1000ms forwards;}@keyframes MPYJEOvE_draw{100%{stroke-dashoffset:0;}}@keyframes MPYJEOvE_fade{0%{stroke-opacity:1;}94.44444444444444%{stroke-opacity:1;}100%{stroke-opacity:0;}}</style></svg>
