<svg width="299" height="117" xmlns="http://www.w3.org/2000/svg">
  <g fill="#FFF" fill-rule="evenodd">
    <path d="M232.1801,32.7601 L223.4501,48.9401 C220.5801,45.3301 216.5501,43.2601 211.5001,43.2601 C200.3001,43.2601 194.4201,52.9201 194.4201,67.0601 C194.4201,76.6201 197.1601,84.0801 202.4601,87.8501 L194.2801,103.0101 C180.5101,96.8701 172.1601,83.3101 172.1601,67.0601 C172.1601,44.6601 187.8401,27.5801 211.6401,27.5801 C219.4701,27.5801 226.4001,29.4501 232.1801,32.7601"/>
    <path d="M150.8002 29.68L150.8002 42.98 151.2202 42.98C155.9802 32.62 162.7002 28.42 171.9402 28.42 174.0402 28.42 175.5802 28.56 176.5602 28.98L176.5602 48.16 176.0002 48.16C174.4602 47.88 172.9202 47.74 171.3802 47.74 159.4802 47.6 151.6402 55.02 151.6402 69.58L151.6402 104.16 129.6602 104.16 129.6602 29.68 150.8002 29.68zM-.0001 104.16L-.0001 0 78.1199 0 78.1199 19.88 23.7999 19.88 23.7999 40.6 70.8399 40.6 70.8399 59.5 23.7999 59.5 23.7999 83.72 79.0999 83.72 79.0999 104.16zM103.3998 29.68L103.3998 42.98 103.8198 42.98C108.5798 32.62 115.2998 28.42 124.5398 28.42 126.6398 28.42 128.1798 28.56 129.1598 28.98L129.1598 48.16 128.5998 48.16C127.0598 47.88 125.5198 47.74 123.9798 47.74 112.0798 47.6 104.2398 55.02 104.2398 69.58L104.2398 104.16 82.2598 104.16 82.2598 29.68 103.3998 29.68z"/>
    <g>
      <path d="M83.0295 1.2595L83.0295 14.5605 83.4505 14.5605C88.2105 4.1995 94.9295-.0005 104.1705-.0005 106.2695-.0005 107.8095.1405 108.7905.5605L108.7905 19.7395 108.2295 19.7395C106.6895 19.4595 105.1495 19.3205 103.6095 19.3205 91.7105 19.1805 83.8705 26.6005 83.8705 41.1595L83.8705 75.7395 61.8895 75.7395 61.8895 1.2595 83.0295 1.2595zM60.8303 38.6404C60.8303 60.9004 45.2903 78.1194 21.6303 78.1194 13.3193 78.1194 6.0103 76.0204.0003 72.3504L8.8993 55.8504C11.7603 59.8604 15.9793 62.1604 21.4903 62.1604 32.4103 62.1604 38.5693 52.6404 38.5693 38.6404 38.5693 28.6104 35.4703 20.8294 29.7693 17.1694L37.8403 2.2204C52.1303 8.1004 60.8303 21.8794 60.8303 38.6404" transform="translate(190 38)"/>
    </g>
  </g>
</svg>