<svg width="6" height="11" xmlns="http://www.w3.org/2000/svg">
  <path d="M12.5438616,4.84508929 L12.5438616,6.465625 L11.5801339,6.465625 C11.2281976,6.465625 10.9908488,6.53928498 10.8680804,6.68660714 C10.7453119,6.83392931 10.6839286,7.05490924 10.6839286,7.34955357 L10.6839286,8.50970982 L12.4824777,8.50970982 L12.2430804,10.3266741 L10.6839286,10.3266741 L10.6839286,14.9857143 L8.80558036,14.9857143 L8.80558036,10.3266741 L7.24029018,10.3266741 L7.24029018,8.50970982 L8.80558036,8.50970982 L8.80558036,7.17154018 C8.80558036,6.41037566 9.01837585,5.82007278 9.44397321,5.40061384 C9.86957058,4.9811549 10.4363432,4.77142857 11.144308,4.77142857 C11.7458735,4.77142857 12.2123867,4.7959819 12.5438616,4.84508929 Z" transform="translate(-7 -4)" fill="#FFF" fill-rule="evenodd"/>
</svg>