<svg width="10" height="10" xmlns="http://www.w3.org/2000/svg">
  <path d="M11.2110491,11.0824777 C11.5179703,10.7755565 11.6714286,10.4052105 11.6714286,9.97142857 C11.6714286,9.53764664 11.5179703,9.16730064 11.2110491,8.86037946 C10.9041279,8.55345829 10.5337819,8.4 10.1,8.4 C9.66621807,8.4 9.29587207,8.55345829 8.98895089,8.86037946 C8.68202972,9.16730064 8.52857143,9.53764664 8.52857143,9.97142857 C8.52857143,10.4052105 8.68202972,10.7755565 8.98895089,11.0824777 C9.29587207,11.3893989 9.66621807,11.5428571 10.1,11.5428571 C10.5337819,11.5428571 10.9041279,11.3893989 11.2110491,11.0824777 Z M11.8126116,8.25881696 C12.2832241,8.72942944 12.5185268,9.30029426 12.5185268,9.97142857 C12.5185268,10.6425629 12.2832241,11.2134277 11.8126116,11.6840402 C11.3419991,12.1546527 10.7711343,12.3899554 10.1,12.3899554 C9.42886569,12.3899554 8.85800086,12.1546527 8.38738839,11.6840402 C7.91677592,11.2134277 7.68147321,10.6425629 7.68147321,9.97142857 C7.68147321,9.30029426 7.91677592,8.72942944 8.38738839,8.25881696 C8.85800086,7.78820449 9.42886569,7.55290179 10.1,7.55290179 C10.7711343,7.55290179 11.3419991,7.78820449 11.8126116,8.25881696 Z M13.0157366,7.05569196 C13.1262282,7.16618359 13.1814732,7.29918077 13.1814732,7.4546875 C13.1814732,7.61019423 13.1262282,7.74319141 13.0157366,7.85368304 C12.905245,7.96417466 12.7722478,8.01941964 12.6167411,8.01941964 C12.4612343,8.01941964 12.3282372,7.96417466 12.2177455,7.85368304 C12.1072539,7.74319141 12.0520089,7.61019423 12.0520089,7.4546875 C12.0520089,7.29918077 12.1072539,7.16618359 12.2177455,7.05569196 C12.3282372,6.94520034 12.4612343,6.88995536 12.6167411,6.88995536 C12.7722478,6.88995536 12.905245,6.94520034 13.0157366,7.05569196 Z M10.5665179,6.10424107 L10.1,6.10424107 C10.071354,6.10424107 9.91482657,6.10321802 9.63041295,6.10117187 C9.34599932,6.09912573 9.13013467,6.09912573 8.9828125,6.10117187 C8.83549033,6.10321802 8.63804067,6.10935635 8.39045759,6.11958705 C8.14287451,6.12981776 7.93212513,6.15027886 7.75820313,6.18097098 C7.58428112,6.2116631 7.43798422,6.24951614 7.31930804,6.29453125 C7.11469392,6.3763769 6.93463619,6.49505131 6.77912946,6.65055804 C6.62362273,6.80606477 6.50494833,6.98612249 6.42310268,7.19073661 C6.37808757,7.3094128 6.34023453,7.4557097 6.30954241,7.6296317 C6.27885029,7.8035537 6.25838919,8.01430308 6.24815848,8.26188616 C6.23792778,8.50946924 6.23178944,8.70691891 6.2297433,8.85424107 C6.22769716,9.00156324 6.22769716,9.21742789 6.2297433,9.50184152 C6.23178944,9.78625514 6.2328125,9.94278259 6.2328125,9.97142857 C6.2328125,10.0000745 6.23178944,10.156602 6.2297433,10.4410156 C6.22769716,10.7254292 6.22769716,10.9412939 6.2297433,11.0886161 C6.23178944,11.2359382 6.23792778,11.4333879 6.24815848,11.680971 C6.25838919,11.9285541 6.27885029,12.1393034 6.30954241,12.3132254 C6.34023453,12.4871474 6.37808757,12.6334443 6.42310268,12.7521205 C6.50494833,12.9567347 6.62362273,13.1367924 6.77912946,13.2922991 C6.93463619,13.4478058 7.11469392,13.5664802 7.31930804,13.6483259 C7.43798422,13.693341 7.58428112,13.731194 7.75820313,13.7618862 C7.93212513,13.7925783 8.14287451,13.8130394 8.39045759,13.8232701 C8.63804067,13.8335008 8.83549033,13.8396391 8.9828125,13.8416853 C9.13013467,13.8437314 9.34599932,13.8437314 9.63041295,13.8416853 C9.91482657,13.8396391 10.071354,13.8386161 10.1,13.8386161 C10.128646,13.8386161 10.2851734,13.8396391 10.5695871,13.8416853 C10.8540007,13.8437314 11.0698653,13.8437314 11.2171875,13.8416853 C11.3645097,13.8396391 11.5619593,13.8335008 11.8095424,13.8232701 C12.0571255,13.8130394 12.2678749,13.7925783 12.4417969,13.7618862 C12.6157189,13.731194 12.7620158,13.693341 12.880692,13.6483259 C13.0853061,13.5664802 13.2653638,13.4478058 13.4208705,13.2922991 C13.5763773,13.1367924 13.6950517,12.9567347 13.7768973,12.7521205 C13.8219124,12.6334443 13.8597655,12.4871474 13.8904576,12.3132254 C13.9211497,12.1393034 13.9416108,11.9285541 13.9518415,11.680971 C13.9620722,11.4333879 13.9682106,11.2359382 13.9702567,11.0886161 C13.9723028,10.9412939 13.9723028,10.7254292 13.9702567,10.4410156 C13.9682106,10.156602 13.9671875,10.0000745 13.9671875,9.97142857 C13.9671875,9.94278259 13.9682106,9.78625514 13.9702567,9.50184152 C13.9723028,9.21742789 13.9723028,9.00156324 13.9702567,8.85424107 C13.9682106,8.70691891 13.9620722,8.50946924 13.9518415,8.26188616 C13.9416108,8.01430308 13.9211497,7.8035537 13.8904576,7.6296317 C13.8597655,7.4557097 13.8219124,7.3094128 13.7768973,7.19073661 C13.6950517,6.98612249 13.5763773,6.80606477 13.4208705,6.65055804 C13.2653638,6.49505131 13.0853061,6.3763769 12.880692,6.29453125 C12.7620158,6.24951614 12.6157189,6.2116631 12.4417969,6.18097098 C12.2678749,6.15027886 12.0571255,6.12981776 11.8095424,6.11958705 C11.5619593,6.10935635 11.3645097,6.10321802 11.2171875,6.10117187 C11.0698653,6.09912573 10.8529776,6.10014879 10.5665179,6.10424107 Z M14.7835938,8.02555804 C14.8040552,8.38567888 14.8142857,9.03429591 14.8142857,9.97142857 C14.8142857,10.9085612 14.8040552,11.5571783 14.7835938,11.9172991 C14.7426709,12.7684938 14.4889532,13.4273414 14.022433,13.8938616 C13.5559128,14.3603818 12.8970653,14.6140995 12.0458705,14.6550223 C11.6857497,14.6754837 11.0371327,14.6857143 10.1,14.6857143 C9.16286734,14.6857143 8.51425031,14.6754837 8.15412946,14.6550223 C7.30293473,14.6140995 6.64408715,14.3603818 6.17756696,13.8938616 C5.71104677,13.4273414 5.45732907,12.7684938 5.41640625,11.9172991 C5.39594484,11.5571783 5.38571429,10.9085612 5.38571429,9.97142857 C5.38571429,9.03429591 5.39594484,8.38567888 5.41640625,8.02555804 C5.45732907,7.1743633 5.71104677,6.51551573 6.17756696,6.04899554 C6.64408715,5.58247535 7.30293473,5.32875765 8.15412946,5.28783482 C8.51425031,5.26737341 9.16286734,5.25714286 10.1,5.25714286 C11.0371327,5.25714286 11.6857497,5.26737341 12.0458705,5.28783482 C12.8970653,5.32875765 13.5559128,5.58247535 14.022433,6.04899554 C14.4889532,6.51551573 14.7426709,7.1743633 14.7835938,8.02555804 Z" transform="translate(-5 -5)" fill="#FFF" fill-rule="evenodd"/>
</svg>