<svg width="79" height="94" xmlns="http://www.w3.org/2000/svg">
  <path d="M36.8226614,93.2967462 L30.8995651,93.2967462 L30.7777337,91.663445 C30.7682157,91.6729631 30.7491795,91.6824812 30.7396614,91.6910474 L35.9022639,81.1126619 L35.9022639,89.9178306 C35.9022639,91.4940233 35.9869747,91.954698 36.8226614,93.2967462 Z M39.4401313,29.6725257 C39.4401313,28.9634294 39.9807578,5.48424863 39.9807578,5.48424863 L33.6017458,29.6725257 L28.6380711,29.6725257 L22.2562036,5.48424863 C22.2562036,5.48424863 22.7968301,28.7131041 22.7968301,29.6725257 L17.4172157,29.6725257 L17.4172157,0.226465502 L25.4247699,0.226465502 L31.1822518,22.0799595 L36.8521675,0.226465502 L44.818794,0.226465502 L44.818794,29.6725257 L39.4401313,29.6725257 Z M61.9302892,22.0822438 L61.9302892,19.2858342 C61.0946024,19.7074848 59.8839036,20.1672077 57.9688675,20.4584607 C55.6788193,20.787786 53.379253,21.2475089 53.379253,23.3310149 C53.379253,24.7111354 54.297747,25.8742438 56.8048072,25.8742438 C59.0948554,25.8742438 61.9302892,24.7111354 61.9302892,22.0822438 Z M58.1754096,8.1896655 C64.3050482,8.1896655 66.932988,10.4425932 66.932988,14.1137137 L66.932988,17.4926294 L61.7703855,28.0710149 C60.3902651,29.1513161 58.203012,30.1745089 55.6788193,30.1745089 C50.9197831,30.1745089 48.0843494,27.2924366 48.0843494,23.7907378 C48.0843494,19.2477619 51.5479759,17.4555089 55.5093976,16.7416535 C58.6351325,16.1591474 60.597759,15.6623041 61.9302892,15.2016294 C61.9302892,13.6149667 61.4705663,12.0758944 58.3438795,12.0758944 C54.5518795,12.0758944 54.1302289,14.1137137 54.1302289,15.2016294 L49.0418675,14.9113282 C49.1265783,13.5312077 49.4178313,8.1896655 58.1754096,8.1896655 Z M6.55909398,40.025333 L9.6039253,40.025333 L9.6039253,32.6021884 L14.6104313,32.6021884 L14.6104313,40.025333 L19.0734554,40.025333 L19.0734554,43.5698631 L14.6104313,43.5698631 L14.6104313,53.9150559 C14.6104313,54.7060077 14.651359,55.6254535 15.1101301,56.1251522 C15.6954916,56.7495378 16.7796,56.7495378 16.9861422,56.7495378 C17.6952386,56.7495378 18.4452627,56.6648269 19.0734554,56.5001643 L19.0734554,60.7128631 C18.4052867,60.7937667 17.1955398,61.044092 15.4851422,61.044092 C11.0221181,61.044092 9.6039253,59.4193571 9.6039253,55.9995137 L9.6039253,43.5698631 L6.55909398,43.5698631 L6.55909398,40.025333 Z M25.8689783,40.025333 L25.8689783,42.9873571 C27.4537373,39.6902968 31.0829783,39.5665619 32.0823759,39.5665619 L32.5011711,39.5665619 L32.5011711,44.6977547 C31.4579904,44.6977547 27.4537373,44.6977547 26.2439904,48.532586 C25.8689783,49.7014053 25.8689783,50.7426824 25.8689783,51.9524294 L25.8689783,60.8784776 L21.0309422,60.8784776 L21.0309422,40.025333 L25.8689783,40.025333 Z M46.6855735,53.2845788 L46.6855735,50.4957836 C45.8508386,50.9098197 44.6401398,51.3695426 42.7251036,51.6607956 C40.4350554,51.9977354 38.1440554,52.4584101 38.1440554,54.5419161 C38.1440554,55.9125185 39.0539831,57.0860968 41.5600916,57.0860968 C43.8501398,57.0860968 46.6855735,55.9125185 46.6855735,53.2845788 Z M42.9316458,39.4015185 C49.0698506,39.4015185 51.6892241,41.6534944 51.6892241,45.3246149 L51.6892241,48.7416029 L46.5637422,59.2533619 C45.1836217,60.3336631 42.9773325,61.375892 40.4350554,61.375892 C35.6750675,61.375892 32.8405855,58.5033378 32.8405855,55.0025908 C32.8405855,50.449145 36.304212,48.656892 40.2656337,47.9525547 C43.3913687,47.3710004 45.3530434,46.8636872 46.6855735,46.4039643 C46.6855735,44.8268197 46.2258506,43.2772776 43.1001157,43.2772776 C39.3081157,43.2772776 38.8855133,45.3246149 38.8855133,46.4039643 L33.7971518,46.1127113 C33.8818627,44.7421089 34.1731157,39.4015185 42.9316458,39.4015185 Z M51.1536422,80.4120366 L59.9121723,93.3004583 L53.8301241,93.3004583 L47.530112,83.9508559 L44.6109193,86.8329282 L44.6109193,93.3004583 L39.645341,93.3004583 L39.645341,73.438145 L44.3196663,63.854398 L44.6109193,63.854398 L44.6109193,80.4120366 L52.7403048,72.4425547 L59.1231241,72.4425547 L51.1536422,80.4120366 Z M73.075,82.9105306 C72.2402651,83.3293257 71.0314699,83.7890486 69.1116747,84.0803016 C66.8178193,84.414386 64.5268193,84.8741089 64.5268193,86.9585667 C64.5268193,88.3329763 65.441506,89.5027474 67.9457108,89.5027474 C70.2395663,89.5027474 73.075,88.3329763 73.075,85.7059884 L73.075,82.9105306 Z M73.075,93.296651 L72.9493614,91.6719161 C71.5749518,92.7560245 69.362,93.7973016 66.8178193,93.7973016 C62.064494,93.7973016 59.2290602,90.9180848 59.2290602,87.4173378 C59.2290602,82.8705547 62.6888795,81.0754462 66.6522048,80.3663498 C69.7807952,79.7857474 71.7405663,79.284145 73.075,78.8253739 C73.075,77.2406149 72.6162289,75.6967836 69.4866867,75.6967836 C65.6927831,75.6967836 65.2768434,77.7403137 65.2768434,78.8253739 L60.1884819,78.5312655 C60.2731928,77.1568559 60.5625422,71.8181691 69.3210723,71.8181691 C75.4535663,71.8181691 78.0796024,74.0720486 78.0796024,77.7403137 L78.0796024,89.9177354 C78.0796024,91.5024944 78.1633614,91.9622173 78.9980964,93.296651 L73.075,93.296651 Z M6.08271446,61.044092 L0.159618072,61.044092 L0.037786747,59.4107908 C0.0282686747,59.4203089 0.00923253012,59.4307788 -0.000285542172,59.439345 L5.16326867,48.8600077 L5.16326867,57.6651763 C5.16326867,59.2413691 5.24702771,59.7020438 6.08271446,61.044092 Z" fill="#FFF" fill-rule="evenodd"/>
</svg>