<svg xmlns="http://www.w3.org/2000/svg" width="107" height="29" viewBox="0 0 107 29">
  <path fill="#FFF" fill-rule="evenodd" d="M21.1459036 5.51863383C22.3229036 3.45768094 22.8244518 2.96667238 23.648833 2.96667238 24.5107901 2.96667238 25.0024861 3.55093362 25.0024861 4.74947109L25.0024861 17.5793897C25.0024861 18.7770107 24.5107901 19.3592099 23.648833 19.3592099 22.8244518 19.3592099 22.3242784 18.8704925 21.1459036 16.8125182 20.4331049 15.5594497 19.1917216 13.4203662 17.8861842 11.1566403 19.581 8.22204497 20.9396938 5.88316702 21.1459036 5.51863383M10.5226595 23.9801435C11.5514176 22.1416681 13.9214561 18.0243448 16.1652484 14.1368308 17.1282484 15.790863 18.0151799 17.3099422 18.5682805 18.2793576 19.4932463 19.8978758 20.8750814 22.3304647 23.648833 22.3304647 26.2001071 22.3304647 27.9707623 20.3852184 27.9707623 17.5793897L27.9707623 4.74947109C27.9707623 1.94295503 26.2001071 0 23.648833 0 20.8750814 0 19.4904968 2.43327623 18.5701135 4.04469165 18.3987302 4.34346681 17.4558929 5.98123126 16.179454 8.19867452 15.8224818 7.5752334 15.4710086 6.96347752 15.1435931 6.38815203 13.42197 3.38917345 10.041045 3.36992719 8.31094433 6.38517345 7.15731478 8.39640685 2.37393362 16.6892505 0 20.8448373L3.42972805 20.8448373C4.9490364 18.1531113 9.66345182 9.92717131 10.6218694 8.27932548 11.3142762 7.09064026 12.139803 7.09064026 12.7985289 8.27932548 13.2815182 9.14426124 13.8552398 10.1482741 14.4585182 11.1912377 11.9640664 15.518666 9.03107495 20.6120493 7.71935118 22.8721092 6.1125182 25.6488394 7.68773233 28.5307366 10.7856916 28.5307366L36.019591 28.5307366 36.019591 25.5638351 11.2485182 25.5638351C10.3246981 25.5638351 10.0935139 24.7367045 10.5226595 23.9801435M41.1758608 13.8160407C41.1758608 15.1916895 41.6006531 16.3629615 42.463985 17.3291692 43.327546 18.2804839 44.4548266 18.7632441 45.8451392 18.7632441 47.2354518 18.7632441 48.3480685 18.2804839 49.1969657 17.3291692 50.045863 16.3629615 50.470197 15.1916895 50.470197 13.8160407 50.470197 12.4401627 50.045863 11.269349 49.1969657 10.3178051 48.3480685 9.35182655 47.2354518 8.86883726 45.8451392 8.86883726 44.4548266 8.86883726 43.327546 9.35182655 42.463985 10.3178051 41.6006531 11.269349 41.1758608 12.4401627 41.1758608 13.8160407M39.0390685 9.7470621C40.4293812 7.33211563 42.8445567 6 45.5816488 6 47.6746788 6 49.4308994 6.86356103 50.3680086 8.03460385L50.3680086 6.40989936 53.5438694 6.40989936 53.5438694 21.2224111 50.3680086 21.2224111 50.3680086 19.5974775C49.0798844 20.9000364 47.6746788 21.6465161 45.4645675 21.6465161 43.4886188 21.6465161 41.6006531 20.8416103 40.2392099 19.49506 38.8779957 18.1485096 38 16.099242 38 13.8160407 38 12.3084176 38.3512441 10.9472034 39.0390685 9.7470621M56 21.2224111L56 6.40989936 59.1763191 6.40989936 59.1763191 8.21011135C60.1274047 6.8051349 61.6496916 6 63.21597 6 64.1235225 6 64.8991006 6.23416274 65.5287281 6.68805353L65.7335632 10.0692077 65.4700728 10.0692077C64.6065118 9.26407281 63.6989593 8.86883726 62.7474154 8.86883726 61.8251991 8.86883726 61.0205225 9.19098287 60.3180343 9.87880728 59.6153169 10.5668608 59.1763191 11.8400921 59.1763191 13.4941242L59.1763191 21.2224111 56 21.2224111zM74.8742377 6C76.5287281 6 77.9630321 6.42433405 79.1631734 7.25856745L79.3093533 10.4933126 78.9581092 10.4933126C78.2851777 9.89324197 77.6411156 9.46890792 77.0114882 9.23451606 76.3823191 8.98568951 75.6649379 8.86883726 74.8451392 8.86883726 73.4399336 8.86883726 72.3131113 9.33716274 71.4495503 10.2884775 70.6006531 11.2251285 70.1763191 12.3961713 70.1763191 13.8158116 70.1763191 15.2359101 70.6006531 16.4067238 71.4495503 17.3580385 72.3131113 18.2946895 73.4399336 18.7632441 74.8451392 18.7632441 75.6353812 18.7632441 76.3380985 18.6317281 76.952833 18.3680086 77.5677966 18.0896253 78.2265225 17.6506274 78.9290107 17.0214582L79.2804839 17.0214582 79.1340749 20.3295225C77.9481392 21.2075182 76.5287281 21.6465161 74.8742377 21.6465161 73.4548266 21.6465161 72.1520385 21.3394925 70.966561 20.7245289 69.7808544 20.1097944 68.8297687 19.202242 68.0977238 18.0018715 67.3659079 16.7870664 67 15.3965246 67 13.8158116 67 11.4301927 67.9075525 9.36649036 69.3565203 8.06370236 70.8203812 6.76091435 72.7670021 6 74.8742377 6zM81 7L84.1763191 7 84.1763191 16.1188287C84.1763191 18.2118587 85.4495503 19.3535739 87.3819657 19.3535739 88.4796895 19.3535739 89.3870128 18.9434454 90.1334925 18.1385396 90.8799722 17.3334047 91.245651 16.2505739 91.245651 14.9184582L91.245651 7 94.42197 7 94.42197 21.8125118 91.245651 21.8125118 91.245651 19.8072355C90.7335632 20.5246167 90.0310749 21.1100236 89.1088587 21.5636852 88.2013062 22.0173469 87.2502206 22.2366167 86.2397923 22.2366167 84.6739722 22.2366167 83.4151756 21.7682912 82.4494261 20.8172056 81.4832184 19.8658908 81 18.5779957 81 16.9239636L81 7zM96.7169229 17.1827602L96.8928887 17.1827602C98.1954475 18.2367216 99.5710964 18.7632441 101.005859 18.7632441 102.42527 18.7632441 103.43524 18.1485096 103.43524 17.1094411 103.43524 16.4944775 103.201306 16.0259229 102.732752 15.6893426 102.278861 15.3529914 101.459062 14.9870835 100.288478 14.5920771 97.6977944 13.7282869 96.4094411 12.2793191 96.4094411 10.2447152 96.4094411 9.02991006 96.8928887 8.01994004 97.8733019 7.21503426 98.8537152 6.40989936 100.083413 6 101.547274 6 103.054897 6 104.386784 6.35147323 105.557368 7.03929764L105.674679 10.0692077 105.469615 10.0692077C104.123064 9.11766381 102.820505 8.63467452 101.547274 8.63467452 100.33224 8.63467452 99.4100236 9.17631906 99.4100236 10.18606 99.4100236 10.7130407 99.6444154 11.1522677 100.127405 11.488848 100.610165 11.8254283 101.4153 12.1913362 102.557244 12.5865717 103.889131 13.0548972 104.679373 13.4501328 105.455409 14.1088587 106.230758 14.7675846 106.61133 15.7042355 106.61133 16.9339336 106.61133 18.3682377 106.069685 19.5097238 105.001518 20.3735139 103.932893 21.2224111 102.630334 21.6465161 101.093612 21.6465161 99.2049593 21.6465161 97.5071649 21.1493212 96 20.1684497L96.7169229 17.1827602z"/>
</svg>
