<svg xmlns="http://www.w3.org/2000/svg" width="107" height="57" viewBox="0 0 107 57">
  <g fill="none" fill-rule="evenodd">
    <path fill="#FFF" d="M21.1459036,33.5186338 C20.9396938,33.883167 19.581,36.222045 17.8861842,39.1566403 C19.1917216,41.4203662 20.4331049,43.5594497 21.1459036,44.8125182 C22.3242784,46.8704925 22.8244518,47.3592099 23.648833,47.3592099 C24.5107901,47.3592099 25.0024861,46.7770107 25.0024861,45.5793897 L25.0024861,32.7494711 C25.0024861,31.5509336 24.5107901,30.9666724 23.648833,30.9666724 C22.8244518,30.9666724 22.3229036,31.4576809 21.1459036,33.5186338 Z M10.5226595,51.9801435 C10.0935139,52.7367045 10.3246981,53.5638351 11.2485182,53.5638351 L36.019591,53.5638351 L36.019591,56.5307366 L10.7856916,56.5307366 C7.68773233,56.5307366 6.1125182,53.6488394 7.71935118,50.8721092 C9.03107495,48.6120493 11.9640664,43.518666 14.4585182,39.1912377 C13.8552398,38.1482741 13.2815182,37.1442612 12.7985289,36.2793255 C12.139803,35.0906403 11.3142762,35.0906403 10.6218694,36.2793255 C9.66345182,37.9271713 4.9490364,46.1531113 3.42972805,48.8448373 L-3.55271368e-15,48.8448373 C2.37393362,44.6892505 7.15731478,36.3964069 8.31094433,34.3851734 C10.041045,31.3699272 13.42197,31.3891734 15.1435931,34.388152 C15.4710086,34.9634775 15.8224818,35.5752334 16.179454,36.1986745 C17.4558929,33.9812313 18.3987302,32.3434668 18.5701135,32.0446916 C19.4904968,30.4332762 20.8750814,28 23.648833,28 C26.2001071,28 27.9707623,29.942955 27.9707623,32.7494711 L27.9707623,45.5793897 C27.9707623,48.3852184 26.2001071,50.3304647 23.648833,50.3304647 C20.8750814,50.3304647 19.4932463,47.8978758 18.5682805,46.2793576 C18.0151799,45.3099422 17.1282484,43.790863 16.1652484,42.1368308 C13.9214561,46.0243448 11.5514176,50.1416681 10.5226595,51.9801435 Z M41.1758608,41.8160407 C41.1758608,43.1916895 41.6006531,44.3629615 42.463985,45.3291692 C43.327546,46.2804839 44.4548266,46.7632441 45.8451392,46.7632441 C47.2354518,46.7632441 48.3480685,46.2804839 49.1969657,45.3291692 C50.045863,44.3629615 50.470197,43.1916895 50.470197,41.8160407 C50.470197,40.4401627 50.045863,39.269349 49.1969657,38.3178051 C48.3480685,37.3518266 47.2354518,36.8688373 45.8451392,36.8688373 C44.4548266,36.8688373 43.327546,37.3518266 42.463985,38.3178051 C41.6006531,39.269349 41.1758608,40.4401627 41.1758608,41.8160407 Z M39.0390685,37.7470621 C40.4293812,35.3321156 42.8445567,34 45.5816488,34 C47.6746788,34 49.4308994,34.863561 50.3680086,36.0346039 L50.3680086,34.4098994 L53.5438694,34.4098994 L53.5438694,49.2224111 L50.3680086,49.2224111 L50.3680086,47.5974775 C49.0798844,48.9000364 47.6746788,49.6465161 45.4645675,49.6465161 C43.4886188,49.6465161 41.6006531,48.8416103 40.2392099,47.49506 C38.8779957,46.1485096 38,44.099242 38,41.8160407 C38,40.3084176 38.3512441,38.9472034 39.0390685,37.7470621 Z M56,49.2224111 L56,34.4098994 L59.1763191,34.4098994 L59.1763191,36.2101113 C60.1274047,34.8051349 61.6496916,34 63.21597,34 C64.1235225,34 64.8991006,34.2341627 65.5287281,34.6880535 L65.7335632,38.0692077 L65.4700728,38.0692077 C64.6065118,37.2640728 63.6989593,36.8688373 62.7474154,36.8688373 C61.8251991,36.8688373 61.0205225,37.1909829 60.3180343,37.8788073 C59.6153169,38.5668608 59.1763191,39.8400921 59.1763191,41.4941242 L59.1763191,49.2224111 L56,49.2224111 Z M74.8742377,34 C76.5287281,34 77.9630321,34.424334 79.1631734,35.2585675 L79.3093533,38.4933126 L78.9581092,38.4933126 C78.2851777,37.893242 77.6411156,37.4689079 77.0114882,37.2345161 C76.3823191,36.9856895 75.6649379,36.8688373 74.8451392,36.8688373 C73.4399336,36.8688373 72.3131113,37.3371627 71.4495503,38.2884775 C70.6006531,39.2251285 70.1763191,40.3961713 70.1763191,41.8158116 C70.1763191,43.2359101 70.6006531,44.4067238 71.4495503,45.3580385 C72.3131113,46.2946895 73.4399336,46.7632441 74.8451392,46.7632441 C75.6353812,46.7632441 76.3380985,46.6317281 76.952833,46.3680086 C77.5677966,46.0896253 78.2265225,45.6506274 78.9290107,45.0214582 L79.2804839,45.0214582 L79.1340749,48.3295225 C77.9481392,49.2075182 76.5287281,49.6465161 74.8742377,49.6465161 C73.4548266,49.6465161 72.1520385,49.3394925 70.966561,48.7245289 C69.7808544,48.1097944 68.8297687,47.202242 68.0977238,46.0018715 C67.3659079,44.7870664 67,43.3965246 67,41.8158116 C67,39.4301927 67.9075525,37.3664904 69.3565203,36.0637024 C70.8203812,34.7609143 72.7670021,34 74.8742377,34 Z M81,35 L84.1763191,35 L84.1763191,44.1188287 C84.1763191,46.2118587 85.4495503,47.3535739 87.3819657,47.3535739 C88.4796895,47.3535739 89.3870128,46.9434454 90.1334925,46.1385396 C90.8799722,45.3334047 91.245651,44.2505739 91.245651,42.9184582 L91.245651,35 L94.42197,35 L94.42197,49.8125118 L91.245651,49.8125118 L91.245651,47.8072355 C90.7335632,48.5246167 90.0310749,49.1100236 89.1088587,49.5636852 C88.2013062,50.0173469 87.2502206,50.2366167 86.2397923,50.2366167 C84.6739722,50.2366167 83.4151756,49.7682912 82.4494261,48.8172056 C81.4832184,47.8658908 81,46.5779957 81,44.9239636 L81,35 Z M96.7169229,45.1827602 L96.8928887,45.1827602 C98.1954475,46.2367216 99.5710964,46.7632441 101.005859,46.7632441 C102.42527,46.7632441 103.43524,46.1485096 103.43524,45.1094411 C103.43524,44.4944775 103.201306,44.0259229 102.732752,43.6893426 C102.278861,43.3529914 101.459062,42.9870835 100.288478,42.5920771 C97.6977944,41.7282869 96.4094411,40.2793191 96.4094411,38.2447152 C96.4094411,37.0299101 96.8928887,36.01994 97.8733019,35.2150343 C98.8537152,34.4098994 100.083413,34 101.547274,34 C103.054897,34 104.386784,34.3514732 105.557368,35.0392976 L105.674679,38.0692077 L105.469615,38.0692077 C104.123064,37.1176638 102.820505,36.6346745 101.547274,36.6346745 C100.33224,36.6346745 99.4100236,37.1763191 99.4100236,38.18606 C99.4100236,38.7130407 99.6444154,39.1522677 100.127405,39.488848 C100.610165,39.8254283 101.4153,40.1913362 102.557244,40.5865717 C103.889131,41.0548972 104.679373,41.4501328 105.455409,42.1088587 C106.230758,42.7675846 106.61133,43.7042355 106.61133,44.9339336 C106.61133,46.3682377 106.069685,47.5097238 105.001518,48.3735139 C103.932893,49.2224111 102.630334,49.6465161 101.093612,49.6465161 C99.2049593,49.6465161 97.5071649,49.1493212 96,48.1684497 L96.7169229,45.1827602 Z"/>
    <path fill="#EB4D44" d="M21.1459036,5.1380384 C22.3229036,3.21922019 22.8244518,2.76207428 23.648833,2.76207428 C24.5107901,2.76207428 25.0024861,3.30604165 25.0024861,4.42192136 L25.0024861,16.367018 C25.0024861,17.4820445 24.5107901,18.0240919 23.648833,18.0240919 C22.8244518,18.0240919 22.3242784,17.5690792 21.1459036,15.6530342 C20.4331049,14.4863842 19.1917216,12.4948237 17.8861842,10.3872168 C19.581,7.65500738 20.9396938,5.47743137 21.1459036,5.1380384 M10.5226595,22.3263405 C11.5514176,20.6146565 13.9214561,16.7812865 16.1652484,13.161877 C17.1282484,14.7018379 18.0151799,16.1161531 18.5682805,17.0187122 C19.4932463,18.5256085 20.8750814,20.7904326 23.648833,20.7904326 C26.2001071,20.7904326 27.9707623,18.9793413 27.9707623,16.367018 L27.9707623,4.42192136 C27.9707623,1.80895813 26.2001071,4.13891144e-13 23.648833,4.13891144e-13 C20.8750814,4.13891144e-13 19.4904968,2.26546408 18.5701135,3.7657474 C18.3987302,4.04391737 17.4558929,5.56873256 16.179454,7.63324869 C15.8224818,7.05280351 15.4710086,6.48323769 15.1435931,5.94758983 C13.42197,3.15543735 10.041045,3.13751842 8.31094433,5.94481666 C7.15731478,7.81734431 2.37393362,15.5382677 -3.55271368e-15,19.4072623 L3.42972805,19.4072623 C4.9490364,16.9011726 9.66345182,9.2425388 10.6218694,7.70833752 C11.3142762,6.60163058 12.139803,6.60163058 12.7985289,7.70833752 C13.2815182,8.51362254 13.8552398,9.44839312 14.4585182,10.4194282 C11.9640664,14.4484131 9.03107495,19.1905286 7.71935118,21.2947224 C6.1125182,23.8799539 7.68773233,26.5630996 10.7856916,26.5630996 L36.019591,26.5630996 L36.019591,23.800812 L11.2485182,23.800812 C10.3246981,23.800812 10.0935139,23.0307249 10.5226595,22.3263405"/>
    <path fill="#908F88" d="M41.1758608 12.8632103C41.1758608 14.1439868 41.6006531 15.2344814 42.463985 16.1340541 43.327546 17.0197609 44.4548266 17.4692273 45.8451392 17.4692273 47.2354518 17.4692273 48.3480685 17.0197609 49.1969657 16.1340541 50.045863 15.2344814 50.470197 14.1439868 50.470197 12.8632103 50.470197 11.5822205 50.045863 10.4921526 49.1969657 9.60623237 48.3480685 8.706873 47.2354518 8.25719331 45.8451392 8.25719331 44.4548266 8.25719331 43.327546 8.706873 42.463985 9.60623237 41.6006531 10.4921526 41.1758608 11.5822205 41.1758608 12.8632103M39.0390685 9.07485092C40.4293812 6.82645248 42.8445567 5.5862069 45.5816488 5.5862069 47.6746788 5.5862069 49.4308994 6.39021199 50.3680086 7.48049324L50.3680086 5.96783733 53.5438694 5.96783733 53.5438694 19.7587966 50.3680086 19.7587966 50.3680086 18.2459273C49.0798844 19.4586546 47.6746788 20.1536529 45.4645675 20.1536529 43.4886188 20.1536529 41.6006531 19.4042578 40.2392099 18.1505731 38.8779957 16.8968883 38 14.9889494 38 12.8632103 38 11.4595612 38.3512441 10.1922239 39.0390685 9.07485092M56 19.7587966L56 5.96783733 59.1763191 5.96783733 59.1763191 7.64389677C60.1274047 6.33581526 61.6496916 5.5862069 63.21597 5.5862069 64.1235225 5.5862069 64.8991006 5.80422048 65.5287281 6.22680846L65.7335632 9.37477959 65.4700728 9.37477959C64.6065118 8.62517123 63.6989593 8.25719331 62.7474154 8.25719331 61.8251991 8.25719331 61.0205225 8.55712198 60.3180343 9.19751023 59.6153169 9.83811179 59.1763191 11.023534 59.1763191 12.5634949L59.1763191 19.7587966 56 19.7587966zM74.8742377 5.5862069C76.5287281 5.5862069 77.9630321 5.98127653 79.1631734 6.75797659L79.3093533 9.7696359 78.9581092 9.7696359C78.2851777 9.21094942 77.6411156 8.81587979 77.0114882 8.59765288 76.3823191 8.36598678 75.6649379 8.25719331 74.8451392 8.25719331 73.4399336 8.25719331 72.3131113 8.69322048 71.4495503 9.57892734 70.6006531 10.4509817 70.1763191 11.5412629 70.1763191 12.862997 70.1763191 14.1851576 70.6006531 15.2752256 71.4495503 16.1609324 72.3131113 17.0329868 73.4399336 17.4692273 74.8451392 17.4692273 75.6353812 17.4692273 76.3380985 17.3467813 76.952833 17.1012494 77.5677966 16.8420649 78.2265225 16.4333428 78.9290107 15.8475646L79.2804839 15.8475646 79.1340749 18.9274865C77.9481392 19.7449307 76.5287281 20.1536529 74.8742377 20.1536529 73.4548266 20.1536529 72.1520385 19.8678034 70.966561 19.2952511 69.7808544 18.7229121 68.8297687 17.8779494 68.0977238 16.7603631 67.3659079 15.6293377 67 14.3346953 67 12.862997 67 10.6419036 67.9075525 8.72052551 69.3565203 7.50758495 70.8203812 6.29464439 72.7670021 5.5862069 74.8742377 5.5862069zM81 6.51724138L84.1763191 6.51724138 84.1763191 15.0071853C84.1763191 16.9558684 85.4495503 18.0188446 87.3819657 18.0188446 88.4796895 18.0188446 89.3870128 17.6370009 90.1334925 16.8876058 90.8799722 16.1379975 91.245651 15.1298446 91.245651 13.8895991L91.245651 6.51724138 94.42197 6.51724138 94.42197 20.3082006 91.245651 20.3082006 91.245651 18.4412193C90.7335632 19.1091259 90.0310749 19.6541599 89.1088587 20.0765345 88.2013062 20.4989092 87.2502206 20.7030569 86.2397923 20.7030569 84.6739722 20.7030569 83.4151756 20.2670298 82.4494261 19.3815362 81.4832184 18.4958294 81 17.2967546 81 15.7567937L81 6.51724138zM96.7169229 15.9977422L96.8928887 15.9977422C98.1954475 16.9790167 99.5710964 17.4692273 101.005859 17.4692273 102.42527 17.4692273 103.43524 16.8968883 103.43524 15.9294797 103.43524 15.3569273 103.201306 14.9206868 102.732752 14.607319 102.278861 14.2941644 101.459062 13.9534915 100.288478 13.5857269 97.6977944 12.7815085 96.4094411 11.4324695 96.4094411 9.53818312 96.4094411 8.40715765 96.8928887 7.46684073 97.8733019 6.71744569 98.8537152 5.96783733 100.083413 5.5862069 101.547274 5.5862069 103.054897 5.5862069 104.386784 5.9134406 105.557368 6.55382884L105.674679 9.37477959 105.469615 9.37477959C104.123064 8.48885941 102.820505 8.03917972 101.547274 8.03917972 100.33224 8.03917972 99.4100236 8.54346947 99.4100236 9.48357306 99.4100236 9.97421029 99.6444154 10.3831458 100.127405 10.6965136 100.610165 11.0098815 101.4153 11.3505544 102.557244 11.7185323 103.889131 12.1545595 104.679373 12.5225374 105.455409 13.1358339 106.230758 13.7491305 106.61133 14.6211848 106.61133 15.7660761 106.61133 17.1014627 106.069685 18.1642256 105.001518 18.968444 103.932893 19.7587966 102.630334 20.1536529 101.093612 20.1536529 99.2049593 20.1536529 97.5071649 19.6907473 96 18.7775221L96.7169229 15.9977422z"/>
  </g>
</svg>
