<svg width="168" height="30" xmlns="http://www.w3.org/2000/svg" xmlns:xlink="http://www.w3.org/1999/xlink">
  <defs>
    <path id="a" d="M0.271651376 0.147963303L16.9344771 0.147963303 16.9344771 24.3899009 0.271651376 24.3899009z"/>
    <path id="c" d="M0.214161468 0.532359633L6.51423853 0.532359633 6.51423853 9.11423119 0.214161468 9.11423119z"/>
  </defs>
  <g fill="none" fill-rule="evenodd">
    <path d="M17.7864991 25.0197468C17.7864991 24.4471596 18.2226826 5.48396697 18.2226826 5.48396697L13.0709394 25.0197468 9.06205872 25.0197468 3.90800367 5.48396697C3.90800367 5.48396697 4.3449578 24.2444807 4.3449578 25.0197468L.0000770642202 25.0197468.0000770642202 1.23849908 6.46730642 1.23849908 11.1173615 18.8885174 15.6965174 1.23849908 22.1306092 1.23849908 22.1306092 25.0197468 17.7864991 25.0197468zM32.9269211 7.66303486C25.8570495 7.66303486 25.6166092 11.9909615 25.5441688 13.0976037L29.6563156 13.3372734C29.6563156 12.4479523 29.9930862 10.8126495 33.0471413 10.8126495 35.5725358 10.8126495 35.9570862 12.0634018 35.9570862 13.3372734 34.8751046 13.6987046 33.2875817 14.107145 30.7629578 14.5880257 27.5647927 15.1413468 24.7750679 16.6078789 24.7750679 20.2638055 24.7750679 23.1005394 27.0592514 25.434044 30.9070679 25.434044 31.1713982 25.434044 31.4357284 25.4093835 31.6761688 25.3854936L33.4794716 21.6817872C32.9269211 21.8744477 32.3497101 21.9468881 31.796389 21.9468881 29.7765358 21.9468881 29.0559853 21.0082459 29.0559853 19.903145 29.0559853 18.2192917 30.9070679 17.8347413 32.7589211 17.5696404 34.2740037 17.3299706 35.259655 16.9685394 35.9324257 16.6325394L35.9570862 16.6325394 39.2515817 9.87477798C38.2651596 8.48068624 36.2214165 7.66303486 32.9269211 7.66303486M77.7378385 22.2231633L77.7378385 12.1971083C77.7378385 11.1929615 77.493545 10.3098055 76.978756 9.57461284L73.6256917 16.4626128 73.6256917 18.7676037C73.6256917 20.2865394 72.451233 21.2182459 71.1049211 21.5858422L69.2684807 25.3858789C71.0309394 25.2140257 72.5236734 24.4541725 73.5031596 23.6696587L73.6256917 25.0175119 78.4969211 25.0175119C77.8110495 23.9147229 77.7378385 23.5471266 77.7378385 22.2231633" fill="#FFF"/>
    <g transform="translate(80.147 .623)">
      <mask id="b" fill="#fff">
        <use xlink:href="#a"/>
      </mask>
      <path fill="#FFF" mask="url(#b)" d="M11.929156 24.3899009L6.75121101 16.6988917 4.35143119 19.0686165 4.35143119 24.3899009 0.271651376 24.3899009 0.271651376 0.147809174 4.35143119 0.147809174 4.35143119 13.7796991 11.0375229 7.22153394 16.284055 7.22153394 9.73436697 13.7796991 16.9344771 24.3899009z"/>
    </g>
    <path d="M107.722448 16.5110862C107.048136 16.8486275 106.071732 17.2200771 104.521971 17.4551229 102.668576 17.7248477 100.818264 18.0962972 100.818264 19.7801505 100.818264 20.8906459 101.558081 21.8346826 103.580246 21.8346826 105.43287 21.8346826 107.722448 20.8906459 107.722448 18.7682972L107.722448 16.5110862zM107.722448 24.8995266L107.621494 23.5871229C106.510998 24.4625725 104.723879 25.3033431 102.668576 25.3033431 98.8292367 25.3033431 96.5396587 22.9790862 96.5396587 20.1516 96.5396587 16.4779486 99.3340073 15.0291413 102.535255 14.4565541 105.06142 13.9864624 106.64509 13.5826459 107.722448 13.211967 107.722448 11.9319303 107.351769 10.6842606 104.824833 10.6842606 101.759989 10.6842606 101.423989 12.3357468 101.423989 13.211967L97.3149248 12.9746092C97.3827413 11.8641138 97.6177872 7.55237064 104.690741 7.55237064 109.643659 7.55237064 111.763695 9.37185688 111.763695 12.3357468L111.763695 22.1706826C111.763695 23.4507193 111.832283 23.8213982 112.505824 24.8995266L107.722448 24.8995266zM115.589549 10.5077835L115.589549 1.92591193 121.683787 1.92591193 121.683787 3.36161835 117.167053 3.36161835 117.167053 5.37761835 121.306943 5.37761835 121.306943 6.76323303 117.167053 6.76323303 117.167053 9.06128807 121.98742 9.06128807 121.98742 10.5077835zM128.424826 10.5077835L126.421156 7.3342789 124.466807 10.5077835 122.61033 10.5077835 125.487908 5.85233394 123.021853 1.92591193 124.866771 1.92591193 126.421156 4.38117798 127.915431 1.92591193 129.772679 1.92591193 127.356716 5.85233394 130.258183 10.5077835zM132.884609 6.27903853L134.291802 6.27903853C135.433123 6.27903853 136.004169 5.7434422 136.004169 4.73467156 136.004169 3.34674495 134.885967 3.29973578 134.10916 3.29973578L132.884609 3.29973578 132.884609 6.27903853zM134.606224 1.92645138C136.381013 1.92645138 137.654884 3.01999266 137.654884 4.78245138 137.654884 6.33837798 136.757086 7.59067156 134.523765 7.59067156L132.884609 7.59067156 132.884609 10.5075523 131.280903 10.5075523 131.280903 1.92645138 134.606224 1.92645138zM138.723149 10.5077835L137.278194 10.5077835 141.342561 1.92591193 142.787516 1.92591193zM150.215042 10.5077835C150.215042 10.3012514 150.371483 3.45640734 150.371483 3.45640734L148.514235 10.5077835 147.069281 10.5077835 145.212804 3.45640734C145.212804 3.45640734 145.371556 10.2280404 145.371556 10.5077835L143.805611 10.5077835 143.805611 1.92591193 146.136804 1.92591193 147.810639 8.29526972 149.461354 1.92591193 151.780987 1.92591193 151.780987 10.5077835 150.215042 10.5077835zM158.94087 10.5077835L156.659769 6.47347156 155.262594 8.07717798 155.262594 10.5077835 153.67353 10.5077835 153.67353 1.92591193 155.262594 1.92591193 155.262594 5.86389358 158.699659 1.92591193 160.579255 1.92591193 157.775659 5.15952661 160.773457 10.5077835z" fill="#FFF"/>
    <g transform="translate(161.064 1.394)">
      <mask id="d" fill="#fff">
        <use xlink:href="#c"/>
      </mask>
      <path fill="#FFF" mask="url(#d)" d="M4.14597798 1.97962569L4.14597798 9.11423119 2.54458349 9.11423119 2.54458349 1.97962569 0.214161468 1.97962569 0.214161468 0.532359633 6.51493211 0.532359633 6.51493211 1.97962569z"/>
    </g>
    <path d="M45.8163743 14.7327523L45.8163743 23.101156C45.8163743 23.7261468 45.8641541 24.4721284 46.2248147 24.8805688 46.7056954 25.3853394 47.5718972 25.3853394 47.7406679 25.3853394 48.3171083 25.3853394 48.9182092 25.3136697 49.4237505 25.1926789L49.4237505 28.5842752C48.8943193 28.655945 47.9078972 28.8478349 46.5376954 28.8478349 42.9310899 28.8478349 41.7758972 27.5500734 41.7758972 24.7842385L41.7758972 14.7327523 39.3237138 14.7327523 39.3237138 11.8705872 41.7758972 11.8705872 41.7758972 5.88346789 45.8163743 5.88346789 45.8163743 11.8705872 49.4237505 11.8705872 49.4237505 14.7327523 45.8163743 14.7327523zM60.2685358 11.5101578L60.2685358 15.6461945C59.4269945 15.6461945 56.2049394 15.6461945 55.2185174 18.7488 54.9064073 19.6859009 54.9064073 20.5282128 54.9064073 21.5130936L54.9064073 28.7278459 51.0100404 28.7278459 51.0100404 11.8708183 54.9064073 11.8708183 54.9064073 14.2759927C56.2049394 11.6064881 59.1387743 11.5101578 59.9317651 11.5101578L60.2685358 11.5101578zM38.9385468 28.7277688L34.1536294 28.7277688 34.0572991 27.4053468C33.0708771 28.1752183 31.604345 28.9204294 29.8727119 29.0892L31.6767853 25.3854936C33.0230972 25.0009431 34.1536294 24.0877321 34.1536294 22.5957688L34.1536294 20.3354752 37.4481248 13.5784844C37.9528954 14.2998055 38.1933358 15.1652367 38.1933358 16.1516587L38.1933358 25.9865945C38.1933358 27.2851266 38.2650055 27.6457872 38.9385468 28.7277688M75.0330385 13.5782532L71.7393138 20.3360147 71.7146532 20.3360147C71.0418826 20.6720147 70.0554606 21.0334459 68.540378 21.2731156 66.6892954 21.5382165 64.8374422 21.922767 64.8374422 23.6058495 64.8374422 24.7117211 65.5587633 25.6503633 67.5793872 25.6503633 68.1080477 25.6503633 68.7091486 25.5779229 69.2624697 25.3613725L67.4583963 29.0889688C67.217956 29.1128587 66.9536257 29.1367486 66.6892954 29.1367486 62.8414789 29.1367486 60.5565248 26.8040147 60.5565248 23.9665101 60.5565248 20.3113541 63.3462495 18.844822 66.5444147 18.2915009 69.0698092 17.8106202 70.6565615 17.4021798 71.7393138 17.0407486 71.7393138 15.7668771 71.3539927 14.5161248 68.8293688 14.5161248 65.7753138 14.5161248 65.4385431 16.1514275 65.4385431 17.0407486L61.3263963 16.8010789C61.3988367 15.6944367 61.6146165 11.3657394 68.7091486 11.3657394 72.0028734 11.3657394 74.0473872 12.1833908 75.0330385 13.5782532M72.058822 19.6192404L69.0486936 25.8390936" fill="#FFF"/>
  </g>
</svg>