
<svg width="841px" height="186px" viewBox="0 0 841 186" version="1.1" xmlns="http://www.w3.org/2000/svg" xmlns:xlink="http://www.w3.org/1999/xlink">
    <defs>
        <polygon id="path-1" points="92.1816406 4.75703565 161 -1.56319402e-13 161 173.5 0.36328125 173.5"></polygon>
        <polygon id="path-3" points="99.9101562 0 526.191406 39 450 186 0.6953125 181.5"></polygon>
        <polygon id="path-5" points="0.3671875 13.5 361.484375 -1.84741111e-13 237.640625 219 0.3671875 223"></polygon>
    </defs>
    <g id="Diseño" stroke="none" stroke-width="1" fill="none" fill-rule="evenodd">
        <g id="coming-soon-—-hover" transform="translate(-27.000000, -418.000000)">
            <g id="hero">
                <g id="txt" transform="translate(18.000000, 389.000000)">
                    <g id="glitch">
                        <g id="3" transform="translate(696.000000, 37.000000)">
                            <mask id="mask-2" fill="white">
                                <use xlink:href="#path-1"></use>
                            </mask>
                            <g id="Mask"></g>
                            <path d="M-686.516,5.892 L-686.516,-7.448 L-630.028,-7.448 L-630.028,5.892 L-650.452,5.892 L-650.452,61 L-666.184,61 L-666.184,5.892 L-686.516,5.892 Z M-612.716,11.412 C-612.716,11.872 -612.716,15.828 -612.808,19.048 L-612.532,19.048 C-609.588,13.804 -604.62,10.676 -597.812,10.676 C-587.048,10.676 -580.792,17.852 -580.792,28.8 L-580.792,61 L-595.144,61 L-595.144,31.56 C-595.144,26.224 -597.996,22.636 -603.332,22.636 C-608.944,22.636 -612.716,27.144 -612.716,33.4 L-612.716,61 L-627.16,61 L-627.16,-7.448 L-612.716,-7.448 L-612.716,11.412 Z M-552.44,62.472 C-568.448,62.472 -578.292,51.248 -578.292,36.62 C-578.292,21.9 -568.08,10.676 -553.176,10.676 C-546.184,10.676 -540.664,12.976 -536.34,16.932 C-530.82,22.268 -528.336,30.548 -528.428,40.208 L-564.124,40.208 C-563.204,47.568 -559.248,51.984 -552.256,51.984 C-547.748,51.984 -544.896,50.236 -543.332,47.2 L-529.348,47.2 C-531.832,55.848 -539.836,62.472 -552.44,62.472 Z M-553.176,20.888 C-559.8,20.888 -563.112,25.12 -564.032,31.836 L-543.148,31.836 C-543.608,25.028 -547.472,20.888 -553.176,20.888 Z M-462.248,61 L-475.956,61 L-475.956,54.008 L-476.232,54.008 C-479.82,59.712 -484.236,62.38 -490.952,62.38 C-502.084,62.38 -508.156,55.204 -508.156,44.44 L-508.156,12.056 L-493.712,12.056 L-493.712,41.68 C-493.712,47.108 -491.044,50.236 -485.892,50.236 C-480.096,50.236 -476.508,45.82 -476.508,39.748 L-476.508,12.056 L-462.248,12.056 L-462.248,61 Z M-456.896,61 L-456.896,-7.448 L-442.36,-7.448 L-442.36,61 L-456.896,61 Z M-439.952001,21.256 L-439.952001,12.056 L-432.592001,12.056 L-432.592001,-3.584 L-418.424001,-3.584 L-418.424001,12.056 L-408.856001,12.056 L-408.856001,21.256 L-418.424001,21.256 L-418.424001,45.544 C-418.424001,49.224 -416.400001,50.236 -412.996001,50.236 C-412.076001,50.236 -410.604001,50.144 -409.684001,50.052 L-408.948001,50.052 L-408.948001,60.816 C-410.512001,61.092 -413.456001,61.552 -417.320001,61.552 C-426.428001,61.552 -432.592001,58.608 -432.592001,48.672 L-432.592001,21.256 L-439.952001,21.256 Z M-405.804001,5.156 L-405.804001,-7.448 L-391.176001,-7.448 L-391.176001,5.156 L-405.804001,5.156 Z M-405.712001,61 L-405.712001,12.056 L-391.268001,12.056 L-391.268001,61 L-405.712001,61 Z M-386.100001,61 L-386.100001,12.056 L-372.208001,12.056 L-372.208001,19.692 L-371.932001,19.692 C-368.804001,13.896 -364.112001,10.676 -357.212001,10.676 C-350.772001,10.676 -346.264001,13.896 -343.780001,19.968 L-343.596001,19.968 C-339.548001,13.436 -334.212001,10.676 -328.048001,10.676 C-317.192001,10.676 -311.580001,17.852 -311.580001,28.708 L-311.580001,61 L-325.932001,61 L-325.932001,31.1 C-325.932001,25.764 -328.508001,22.544 -333.200001,22.544 C-338.352001,22.544 -341.572001,26.868 -341.572001,33.124 L-341.572001,61 L-356.016001,61 L-356.016001,31.1 C-356.016001,25.764 -358.408001,22.544 -363.192001,22.544 C-368.252001,22.544 -371.656001,26.868 -371.656001,33.124 L-371.656001,61 L-386.100001,61 Z M-275.408001,61 C-276.144001,59.896 -276.788001,57.78 -277.064001,55.02 L-277.248001,55.02 C-280.468001,59.528 -284.516001,62.288 -292.060001,62.288 C-301.720001,62.288 -308.804001,57.136 -308.804001,47.476 C-308.804001,36.62 -300.248001,33.86 -289.576001,32.572 C-280.836001,31.376 -277.248001,29.996 -277.248001,26.316 C-277.248001,22.82 -279.548001,20.428 -284.516001,20.428 C-290.036001,20.428 -292.704001,23.004 -293.072001,26.868 L-306.412001,26.868 C-306.044001,18.496 -299.236001,10.676 -284.700001,10.676 C-278.444001,10.676 -274.028001,11.596 -270.624001,13.62 C-265.564001,16.564 -263.172001,21.624 -263.172001,28.248 L-263.172001,53.364 C-263.172001,57.228 -262.620001,59.344 -261.332001,60.172 L-261.332001,61 L-275.408001,61 Z M-287.552001,52.812 C-281.112001,52.812 -276.880001,48.764 -276.880001,43.428 L-276.880001,37.08 C-278.996001,38.368 -282.124001,39.104 -285.344001,39.84 C-291.692001,41.22 -294.728001,42.784 -294.728001,47.016 C-294.728001,51.248 -291.508001,52.812 -287.552001,52.812 Z M-261.132001,21.256 L-261.132001,12.056 L-253.772001,12.056 L-253.772001,-3.584 L-239.604001,-3.584 L-239.604001,12.056 L-230.036001,12.056 L-230.036001,21.256 L-239.604001,21.256 L-239.604001,45.544 C-239.604001,49.224 -237.580001,50.236 -234.176001,50.236 C-233.256001,50.236 -231.784001,50.144 -230.864001,50.052 L-230.128001,50.052 L-230.128001,60.816 C-231.692001,61.092 -234.636001,61.552 -238.500001,61.552 C-247.608001,61.552 -253.772001,58.608 -253.772001,48.672 L-253.772001,21.256 L-261.132001,21.256 Z M-203.340001,62.472 C-219.348001,62.472 -229.192001,51.248 -229.192001,36.62 C-229.192001,21.9 -218.980001,10.676 -204.076001,10.676 C-197.084001,10.676 -191.564001,12.976 -187.240001,16.932 C-181.720001,22.268 -179.236001,30.548 -179.328001,40.208 L-215.024001,40.208 C-214.104001,47.568 -210.148001,51.984 -203.156001,51.984 C-198.648001,51.984 -195.796001,50.236 -194.232001,47.2 L-180.248001,47.2 C-182.732001,55.848 -190.736001,62.472 -203.340001,62.472 Z M-204.076001,20.888 C-210.700001,20.888 -214.012001,25.12 -214.932001,31.836 L-194.048001,31.836 C-194.508001,25.028 -198.372001,20.888 -204.076001,20.888 Z M-683.204,161 L-683.204,92.552 L-631.868,92.552 L-631.868,105.616 L-667.564,105.616 L-667.564,119.232 L-636.652,119.232 L-636.652,131.652 L-667.564,131.652 L-667.564,147.568 L-631.224,147.568 L-631.224,161 L-683.204,161 Z M-630.196,161 L-612.992,135.332 L-628.54,112.056 L-612.072,112.056 L-609.22,116.656 C-606.828,120.704 -604.068,127.052 -604.068,127.052 L-603.884,127.052 C-603.884,127.052 -601.124,120.704 -598.916,116.656 L-596.248,112.056 L-580.976,112.056 L-595.972,135.056 L-578.768,161 L-595.512,161 L-599.284,154.744 C-601.584,150.604 -604.62,143.888 -604.62,143.888 L-604.804,143.888 C-604.804,143.888 -607.932,150.604 -610.508,154.744 L-614.464,161 L-630.196,161 Z M-576.82,177.284 L-576.82,112.056 L-562.928,112.056 L-562.928,119.048 L-562.652,119.048 C-559.34,113.436 -554.464,110.676 -547.748,110.676 C-534.776,110.676 -526.68,121.532 -526.68,136.528 C-526.68,152.444 -535.144,162.564 -548.208,162.564 C-554.648,162.564 -559.8,159.712 -562.652,154.928 L-562.836,154.928 C-562.652,156.768 -562.376,160.356 -562.376,165.6 L-562.376,177.284 L-576.82,177.284 Z M-551.612,151.34 C-545.08,151.34 -541.308,145.728 -541.308,136.988 C-541.308,128.248 -544.712,122.176 -551.796,122.176 C-559.248,122.176 -562.836,128.708 -562.836,136.988 C-562.836,145.36 -558.972,151.34 -551.612,151.34 Z M-500.26,162.472 C-516.268,162.472 -526.112,151.248 -526.112,136.62 C-526.112,121.9 -515.9,110.676 -500.996,110.676 C-494.004,110.676 -488.484,112.976 -484.16,116.932 C-478.64,122.268 -476.156,130.548 -476.248,140.208 L-511.944,140.208 C-511.024,147.568 -507.068,151.984 -500.076,151.984 C-495.568,151.984 -492.716,150.236 -491.152,147.2 L-477.168,147.2 C-479.652,155.848 -487.656,162.472 -500.26,162.472 Z M-500.996,120.888 C-507.62,120.888 -510.932,125.12 -511.852,131.836 L-490.968,131.836 C-491.428,125.028 -495.292,120.888 -500.996,120.888 Z M-459.488,112.056 L-459.488,120.796 L-459.212,120.796 C-456.084,113.988 -451.668,111.228 -445.596,111.228 C-444.216,111.228 -443.204,111.32 -442.56,111.596 L-442.56,124.2 L-442.928,124.2 C-443.94,124.016 -444.952,123.924 -445.964,123.924 C-453.784,123.832 -458.936,128.708 -458.936,138.276 L-458.936,161 L-473.38,161 L-473.38,112.056 L-459.488,112.056 Z M-440.152,105.156 L-440.152,92.552 L-425.524,92.552 L-425.524,105.156 L-440.152,105.156 Z M-440.06,161 L-440.06,112.056 L-425.616,112.056 L-425.616,161 L-440.06,161 Z M-396.896001,162.472 C-412.904001,162.472 -422.748001,151.248 -422.748001,136.62 C-422.748001,121.9 -412.536001,110.676 -397.632001,110.676 C-390.640001,110.676 -385.120001,112.976 -380.796001,116.932 C-375.276001,122.268 -372.792001,130.548 -372.884001,140.208 L-408.580001,140.208 C-407.660001,147.568 -403.704001,151.984 -396.712001,151.984 C-392.204001,151.984 -389.352001,150.236 -387.788001,147.2 L-373.804001,147.2 C-376.288001,155.848 -384.292001,162.472 -396.896001,162.472 Z M-397.632001,120.888 C-404.256001,120.888 -407.568001,125.12 -408.488001,131.836 L-387.604001,131.836 C-388.064001,125.028 -391.928001,120.888 -397.632001,120.888 Z M-356.032001,112.056 L-356.032001,119.508 L-355.756001,119.508 C-352.720001,113.62 -347.476001,110.676 -340.668001,110.676 C-329.904001,110.676 -323.648001,117.852 -323.648001,128.8 L-323.648001,161 L-338.000001,161 L-338.000001,131.56 C-338.000001,126.224 -340.852001,122.636 -346.188001,122.636 C-351.800001,122.636 -355.572001,127.144 -355.572001,133.4 L-355.572001,161 L-370.016001,161 L-370.016001,112.056 L-356.032001,112.056 Z M-295.388001,162.564 C-311.028001,162.564 -321.148001,151.248 -321.148001,136.62 C-321.148001,121.9 -311.120001,110.676 -295.756001,110.676 C-282.692001,110.676 -274.596001,118.128 -272.848001,128.8 L-286.832001,128.8 C-287.844001,124.292 -290.788001,121.44 -295.572001,121.44 C-302.840001,121.44 -306.520001,127.42 -306.520001,136.62 C-306.520001,145.544 -302.840001,151.616 -295.572001,151.616 C-290.236001,151.616 -287.016001,148.396 -286.372001,142.784 L-272.480001,142.784 C-272.940001,153.916 -281.772001,162.564 -295.388001,162.564 Z M-246.612001,162.472 C-262.620001,162.472 -272.464001,151.248 -272.464001,136.62 C-272.464001,121.9 -262.252001,110.676 -247.348001,110.676 C-240.356001,110.676 -234.836001,112.976 -230.512001,116.932 C-224.992001,122.268 -222.508001,130.548 -222.600001,140.208 L-258.296001,140.208 C-257.376001,147.568 -253.420001,151.984 -246.428001,151.984 C-241.920001,151.984 -239.068001,150.236 -237.504001,147.2 L-223.520001,147.2 C-226.004001,155.848 -234.008001,162.472 -246.612001,162.472 Z M-247.348001,120.888 C-253.972001,120.888 -257.284001,125.12 -258.204001,131.836 L-237.320001,131.836 C-237.780001,125.028 -241.644001,120.888 -247.348001,120.888 Z M-170.220001,162.564 C-190.184001,162.564 -203.800001,147.476 -203.800001,127.052 C-203.800001,106.628 -190.644001,91.356 -170.220001,91.356 C-162.676001,91.356 -156.144001,93.196 -151.452001,96.692 C-145.288001,101.2 -141.700001,107.916 -140.872001,115.644 L-156.512001,115.644 C-157.432001,109.204 -162.584001,104.42 -170.312001,104.42 C-181.996001,104.42 -187.792001,114.08 -187.792001,127.052 C-187.792001,140.116 -180.984001,149.592 -170.220001,149.592 C-161.848001,149.592 -156.696001,144.164 -155.960001,137.08 L-140.228001,137.08 C-140.688001,143.888 -143.816001,150.236 -148.508001,154.836 C-153.660001,159.896 -160.652001,162.564 -170.220001,162.564 Z M-123.560001,112.056 L-123.560001,120.796 L-123.284001,120.796 C-120.156001,113.988 -115.740001,111.228 -109.668001,111.228 C-108.288001,111.228 -107.276001,111.32 -106.632001,111.596 L-106.632001,124.2 L-107.000001,124.2 C-108.012001,124.016 -109.024001,123.924 -110.036001,123.924 C-117.856001,123.832 -123.008001,128.708 -123.008001,138.276 L-123.008001,161 L-137.452001,161 L-137.452001,112.056 L-123.560001,112.056 Z M-81.5000012,162.472 C-97.5080012,162.472 -107.352001,151.248 -107.352001,136.62 C-107.352001,121.9 -97.1400012,110.676 -82.2360012,110.676 C-75.2440012,110.676 -69.7240012,112.976 -65.4000012,116.932 C-59.8800012,122.268 -57.3960012,130.548 -57.4880012,140.208 L-93.1840012,140.208 C-92.2640012,147.568 -88.3080012,151.984 -81.3160012,151.984 C-76.8080012,151.984 -73.9560012,150.236 -72.3920012,147.2 L-58.4080012,147.2 C-60.8920012,155.848 -68.8960012,162.472 -81.5000012,162.472 Z M-82.2360012,120.888 C-88.8600012,120.888 -92.1720012,125.12 -93.0920012,131.836 L-72.2080012,131.836 C-72.6680012,125.028 -76.5320012,120.888 -82.2360012,120.888 Z M-23.2480013,161 C-23.9840013,159.896 -24.6280013,157.78 -24.9040013,155.02 L-25.0880013,155.02 C-28.3080013,159.528 -32.3560013,162.288 -39.9000013,162.288 C-49.5600013,162.288 -56.6440013,157.136 -56.6440013,147.476 C-56.6440013,136.62 -48.0880013,133.86 -37.4160013,132.572 C-28.6760013,131.376 -25.0880013,129.996 -25.0880013,126.316 C-25.0880013,122.82 -27.3880013,120.428 -32.3560013,120.428 C-37.8760013,120.428 -40.5440013,123.004 -40.9120013,126.868 L-54.2520013,126.868 C-53.8840013,118.496 -47.0760013,110.676 -32.5400013,110.676 C-26.2840013,110.676 -21.8680013,111.596 -18.4640013,113.62 C-13.4040013,116.564 -11.0120013,121.624 -11.0120013,128.248 L-11.0120013,153.364 C-11.0120013,157.228 -10.4600013,159.344 -9.17200134,160.172 L-9.17200134,161 L-23.2480013,161 Z M-35.3920013,152.812 C-28.9520013,152.812 -24.7200013,148.764 -24.7200013,143.428 L-24.7200013,137.08 C-26.8360013,138.368 -29.9640013,139.104 -33.1840013,139.84 C-39.5320013,141.22 -42.5680013,142.784 -42.5680013,147.016 C-42.5680013,151.248 -39.3480013,152.812 -35.3920013,152.812 Z M-8.97200143,121.256 L-8.97200143,112.056 L-1.61200143,112.056 L-1.61200143,96.416 L12.5559986,96.416 L12.5559986,112.056 L22.1239986,112.056 L22.1239986,121.256 L12.5559986,121.256 L12.5559986,145.544 C12.5559986,149.224 14.5799986,150.236 17.9839986,150.236 C18.9039986,150.236 20.3759986,150.144 21.2959986,150.052 L22.0319986,150.052 L22.0319986,160.816 C20.4679986,161.092 17.5239986,161.552 13.6599986,161.552 C4.55199857,161.552 -1.61200143,158.608 -1.61200143,148.672 L-1.61200143,121.256 L-8.97200143,121.256 Z M48.9119985,162.564 C33.2719985,162.564 22.9679985,151.248 22.9679985,136.62 C22.9679985,121.9 33.2719985,110.676 48.9119985,110.676 C64.4599985,110.676 74.6719985,121.9 74.6719985,136.62 C74.6719985,151.248 64.4599985,162.564 48.9119985,162.564 Z M48.8199985,152.076 C55.9959985,152.076 60.0439985,145.82 60.0439985,136.62 C60.0439985,127.328 55.9959985,120.98 48.8199985,120.98 C41.4599985,120.98 37.5959985,127.328 37.5959985,136.62 C37.5959985,145.82 41.4599985,152.076 48.8199985,152.076 Z M91.4319984,112.056 L91.4319984,120.796 L91.7079984,120.796 C94.8359984,113.988 99.2519984,111.228 105.323998,111.228 C106.703998,111.228 107.715998,111.32 108.359998,111.596 L108.359998,124.2 L107.991998,124.2 C106.979998,124.016 105.967998,123.924 104.955998,123.924 C97.1359984,123.832 91.9839984,128.708 91.9839984,138.276 L91.9839984,161 L77.5399984,161 L77.5399984,112.056 L91.4319984,112.056 Z M131.191998,162.564 C117.023998,162.564 108.467998,155.756 107.731998,145.912 L121.347998,145.912 C122.175998,150.512 125.671998,153.088 131.283998,153.088 C136.435998,153.088 139.379998,150.972 139.379998,147.476 C139.379998,143.06 133.583998,142.508 126.775998,141.22 C118.035998,139.564 109.203998,137.356 109.203998,125.948 C109.203998,115.92 118.311998,110.676 129.811998,110.676 C143.427998,110.676 150.235998,116.564 151.523998,125.12 L138.091998,125.12 C137.171998,121.624 134.411998,119.876 129.811998,119.876 C125.395998,119.876 122.543998,121.716 122.543998,124.844 C122.543998,128.524 127.879998,129.076 134.595998,130.272 C143.335998,131.836 153.271998,134.136 153.271998,146.464 C153.271998,157.044 143.887998,162.564 131.191998,162.564 Z" id="The-ultimate-Experie" fill="#FFFFFF" mask="url(#mask-2)"></path>
                        </g>
                        <g id="2" transform="translate(246.000000, 29.000000)">
                            <mask id="mask-4" fill="white">
                                <use xlink:href="#path-3"></use>
                            </mask>
                            <g id="Mask"></g>
                            <path d="M-223.516,24.892 L-223.516,11.552 L-167.028,11.552 L-167.028,24.892 L-187.452,24.892 L-187.452,80 L-203.184,80 L-203.184,24.892 L-223.516,24.892 Z M-149.716,30.412 C-149.716,30.872 -149.716,34.828 -149.808,38.048 L-149.532,38.048 C-146.588,32.804 -141.62,29.676 -134.812,29.676 C-124.048,29.676 -117.792,36.852 -117.792,47.8 L-117.792,80 L-132.144,80 L-132.144,50.56 C-132.144,45.224 -134.996,41.636 -140.332,41.636 C-145.944,41.636 -149.716,46.144 -149.716,52.4 L-149.716,80 L-164.16,80 L-164.16,11.552 L-149.716,11.552 L-149.716,30.412 Z M-89.4400002,81.472 C-105.448,81.472 -115.292,70.248 -115.292,55.62 C-115.292,40.9 -105.08,29.676 -90.1760002,29.676 C-83.1840002,29.676 -77.6640002,31.976 -73.3400002,35.932 C-67.8200002,41.268 -65.3360002,49.548 -65.4280002,59.208 L-101.124,59.208 C-100.204,66.568 -96.2480002,70.984 -89.2560002,70.984 C-84.7480002,70.984 -81.8960002,69.236 -80.3320002,66.2 L-66.3480002,66.2 C-68.8320002,74.848 -76.8360002,81.472 -89.4400002,81.472 Z M-90.1760002,39.888 C-96.8000002,39.888 -100.112,44.12 -101.032,50.836 L-80.1480002,50.836 C-80.6080002,44.028 -84.4720002,39.888 -90.1760002,39.888 Z M0.751999619,80 L-12.9560004,80 L-12.9560004,73.008 L-13.2320004,73.008 C-16.8200004,78.712 -21.2360004,81.38 -27.9520004,81.38 C-39.0840004,81.38 -45.1560004,74.204 -45.1560004,63.44 L-45.1560004,31.056 L-30.7120004,31.056 L-30.7120004,60.68 C-30.7120004,66.108 -28.0440004,69.236 -22.8920004,69.236 C-17.0960004,69.236 -13.5080004,64.82 -13.5080004,58.748 L-13.5080004,31.056 L0.751999619,31.056 L0.751999619,80 Z M6.10399952,80 L6.10399952,11.552 L20.6399995,11.552 L20.6399995,80 L6.10399952,80 Z M23.0479994,40.256 L23.0479994,31.056 L30.4079994,31.056 L30.4079994,15.416 L44.5759994,15.416 L44.5759994,31.056 L54.1439994,31.056 L54.1439994,40.256 L44.5759994,40.256 L44.5759994,64.544 C44.5759994,68.224 46.5999994,69.236 50.0039994,69.236 C50.9239994,69.236 52.3959994,69.144 53.3159994,69.052 L54.0519994,69.052 L54.0519994,79.816 C52.4879994,80.092 49.5439994,80.552 45.6799994,80.552 C36.5719994,80.552 30.4079994,77.608 30.4079994,67.672 L30.4079994,40.256 L23.0479994,40.256 Z M57.1959993,24.156 L57.1959993,11.552 L71.8239993,11.552 L71.8239993,24.156 L57.1959993,24.156 Z M57.2879993,80 L57.2879993,31.056 L71.7319993,31.056 L71.7319993,80 L57.2879993,80 Z M76.8999992,80 L76.8999992,31.056 L90.7919992,31.056 L90.7919992,38.692 L91.0679992,38.692 C94.1959992,32.896 98.8879992,29.676 105.787999,29.676 C112.227999,29.676 116.735999,32.896 119.219999,38.968 L119.403999,38.968 C123.451999,32.436 128.787999,29.676 134.951999,29.676 C145.807999,29.676 151.419999,36.852 151.419999,47.708 L151.419999,80 L137.067999,80 L137.067999,50.1 C137.067999,44.764 134.491999,41.544 129.799999,41.544 C124.647999,41.544 121.427999,45.868 121.427999,52.124 L121.427999,80 L106.983999,80 L106.983999,50.1 C106.983999,44.764 104.591999,41.544 99.8079992,41.544 C94.7479992,41.544 91.3439992,45.868 91.3439992,52.124 L91.3439992,80 L76.8999992,80 Z M187.591999,80 C186.855999,78.896 186.211999,76.78 185.935999,74.02 L185.751999,74.02 C182.531999,78.528 178.483999,81.288 170.939999,81.288 C161.279999,81.288 154.195999,76.136 154.195999,66.476 C154.195999,55.62 162.751999,52.86 173.423999,51.572 C182.163999,50.376 185.751999,48.996 185.751999,45.316 C185.751999,41.82 183.451999,39.428 178.483999,39.428 C172.963999,39.428 170.295999,42.004 169.927999,45.868 L156.587999,45.868 C156.955999,37.496 163.763999,29.676 178.299999,29.676 C184.555999,29.676 188.971999,30.596 192.375999,32.62 C197.435999,35.564 199.827999,40.624 199.827999,47.248 L199.827999,72.364 C199.827999,76.228 200.379999,78.344 201.667999,79.172 L201.667999,80 L187.591999,80 Z M175.447999,71.812 C181.887999,71.812 186.119999,67.764 186.119999,62.428 L186.119999,56.08 C184.003999,57.368 180.875999,58.104 177.655999,58.84 C171.307999,60.22 168.271999,61.784 168.271999,66.016 C168.271999,70.248 171.491999,71.812 175.447999,71.812 Z M201.867999,40.256 L201.867999,31.056 L209.227999,31.056 L209.227999,15.416 L223.395999,15.416 L223.395999,31.056 L232.963999,31.056 L232.963999,40.256 L223.395999,40.256 L223.395999,64.544 C223.395999,68.224 225.419999,69.236 228.823999,69.236 C229.743999,69.236 231.215999,69.144 232.135999,69.052 L232.871999,69.052 L232.871999,79.816 C231.307999,80.092 228.363999,80.552 224.499999,80.552 C215.391999,80.552 209.227999,77.608 209.227999,67.672 L209.227999,40.256 L201.867999,40.256 Z M259.659999,81.472 C243.651999,81.472 233.807999,70.248 233.807999,55.62 C233.807999,40.9 244.019999,29.676 258.923999,29.676 C265.915999,29.676 271.435999,31.976 275.759999,35.932 C281.279999,41.268 283.763999,49.548 283.671999,59.208 L247.975999,59.208 C248.895999,66.568 252.851999,70.984 259.843999,70.984 C264.351999,70.984 267.203999,69.236 268.767999,66.2 L282.751999,66.2 C280.267999,74.848 272.263999,81.472 259.659999,81.472 Z M258.923999,39.888 C252.299999,39.888 248.987999,44.12 248.067999,50.836 L268.951999,50.836 C268.491999,44.028 264.627999,39.888 258.923999,39.888 Z M-220.204,180 L-220.204,111.552 L-168.868,111.552 L-168.868,124.616 L-204.564,124.616 L-204.564,138.232 L-173.652,138.232 L-173.652,150.652 L-204.564,150.652 L-204.564,166.568 L-168.224,166.568 L-168.224,180 L-220.204,180 Z M-167.196,180 L-149.992,154.332 L-165.54,131.056 L-149.072,131.056 L-146.22,135.656 C-143.828,139.704 -141.068,146.052 -141.068,146.052 L-140.884,146.052 C-140.884,146.052 -138.124,139.704 -135.916,135.656 L-133.248,131.056 L-117.976,131.056 L-132.972,154.056 L-115.768,180 L-132.512,180 L-136.284,173.744 C-138.584,169.604 -141.62,162.888 -141.62,162.888 L-141.804,162.888 C-141.804,162.888 -144.932,169.604 -147.508,173.744 L-151.464,180 L-167.196,180 Z M-113.82,196.284 L-113.82,131.056 L-99.9280002,131.056 L-99.9280002,138.048 L-99.6520002,138.048 C-96.3400002,132.436 -91.4640002,129.676 -84.7480002,129.676 C-71.7760002,129.676 -63.6800002,140.532 -63.6800002,155.528 C-63.6800002,171.444 -72.1440002,181.564 -85.2080002,181.564 C-91.6480002,181.564 -96.8000002,178.712 -99.6520002,173.928 L-99.8360002,173.928 C-99.6520002,175.768 -99.3760002,179.356 -99.3760002,184.6 L-99.3760002,196.284 L-113.82,196.284 Z M-88.6120002,170.34 C-82.0800002,170.34 -78.3080002,164.728 -78.3080002,155.988 C-78.3080002,147.248 -81.7120002,141.176 -88.7960002,141.176 C-96.2480002,141.176 -99.8360002,147.708 -99.8360002,155.988 C-99.8360002,164.36 -95.9720002,170.34 -88.6120002,170.34 Z M-37.2600003,181.472 C-53.2680003,181.472 -63.1120003,170.248 -63.1120003,155.62 C-63.1120003,140.9 -52.9000003,129.676 -37.9960003,129.676 C-31.0040003,129.676 -25.4840003,131.976 -21.1600003,135.932 C-15.6400003,141.268 -13.1560003,149.548 -13.2480003,159.208 L-48.9440003,159.208 C-48.0240003,166.568 -44.0680003,170.984 -37.0760003,170.984 C-32.5680003,170.984 -29.7160003,169.236 -28.1520003,166.2 L-14.1680003,166.2 C-16.6520003,174.848 -24.6560003,181.472 -37.2600003,181.472 Z M-37.9960003,139.888 C-44.6200003,139.888 -47.9320003,144.12 -48.8520003,150.836 L-27.9680003,150.836 C-28.4280003,144.028 -32.2920003,139.888 -37.9960003,139.888 Z M3.51199962,131.056 L3.51199962,139.796 L3.78799962,139.796 C6.91599962,132.988 11.3319996,130.228 17.4039996,130.228 C18.7839996,130.228 19.7959996,130.32 20.4399996,130.596 L20.4399996,143.2 L20.0719996,143.2 C19.0599996,143.016 18.0479996,142.924 17.0359996,142.924 C9.21599962,142.832 4.06399962,147.708 4.06399962,157.276 L4.06399962,180 L-10.3800004,180 L-10.3800004,131.056 L3.51199962,131.056 Z M22.8479995,124.156 L22.8479995,111.552 L37.4759995,111.552 L37.4759995,124.156 L22.8479995,124.156 Z M22.9399995,180 L22.9399995,131.056 L37.3839995,131.056 L37.3839995,180 L22.9399995,180 Z M66.1039994,181.472 C50.0959994,181.472 40.2519994,170.248 40.2519994,155.62 C40.2519994,140.9 50.4639994,129.676 65.3679994,129.676 C72.3599994,129.676 77.8799994,131.976 82.2039994,135.932 C87.7239994,141.268 90.2079994,149.548 90.1159994,159.208 L54.4199994,159.208 C55.3399994,166.568 59.2959994,170.984 66.2879994,170.984 C70.7959994,170.984 73.6479994,169.236 75.2119994,166.2 L89.1959994,166.2 C86.7119994,174.848 78.7079994,181.472 66.1039994,181.472 Z M65.3679994,139.888 C58.7439994,139.888 55.4319994,144.12 54.5119994,150.836 L75.3959994,150.836 C74.9359994,144.028 71.0719994,139.888 65.3679994,139.888 Z M106.967999,131.056 L106.967999,138.508 L107.243999,138.508 C110.279999,132.62 115.523999,129.676 122.331999,129.676 C133.095999,129.676 139.351999,136.852 139.351999,147.8 L139.351999,180 L124.999999,180 L124.999999,150.56 C124.999999,145.224 122.147999,141.636 116.811999,141.636 C111.199999,141.636 107.427999,146.144 107.427999,152.4 L107.427999,180 L92.9839993,180 L92.9839993,131.056 L106.967999,131.056 Z M167.611999,181.564 C151.971999,181.564 141.851999,170.248 141.851999,155.62 C141.851999,140.9 151.879999,129.676 167.243999,129.676 C180.307999,129.676 188.403999,137.128 190.151999,147.8 L176.167999,147.8 C175.155999,143.292 172.211999,140.44 167.427999,140.44 C160.159999,140.44 156.479999,146.42 156.479999,155.62 C156.479999,164.544 160.159999,170.616 167.427999,170.616 C172.763999,170.616 175.983999,167.396 176.627999,161.784 L190.519999,161.784 C190.059999,172.916 181.227999,181.564 167.611999,181.564 Z M216.387999,181.472 C200.379999,181.472 190.535999,170.248 190.535999,155.62 C190.535999,140.9 200.747999,129.676 215.651999,129.676 C222.643999,129.676 228.163999,131.976 232.487999,135.932 C238.007999,141.268 240.491999,149.548 240.399999,159.208 L204.703999,159.208 C205.623999,166.568 209.579999,170.984 216.571999,170.984 C221.079999,170.984 223.931999,169.236 225.495999,166.2 L239.479999,166.2 C236.995999,174.848 228.991999,181.472 216.387999,181.472 Z M215.651999,139.888 C209.027999,139.888 205.715999,144.12 204.795999,150.836 L225.679999,150.836 C225.219999,144.028 221.355999,139.888 215.651999,139.888 Z M292.779999,181.564 C272.815999,181.564 259.199999,166.476 259.199999,146.052 C259.199999,125.628 272.355999,110.356 292.779999,110.356 C300.323999,110.356 306.855999,112.196 311.547999,115.692 C317.711999,120.2 321.299999,126.916 322.127999,134.644 L306.487999,134.644 C305.567999,128.204 300.415999,123.42 292.687999,123.42 C281.003999,123.42 275.207999,133.08 275.207999,146.052 C275.207999,159.116 282.015999,168.592 292.779999,168.592 C301.151999,168.592 306.303999,163.164 307.039999,156.08 L322.771999,156.08 C322.311999,162.888 319.183999,169.236 314.491999,173.836 C309.339999,178.896 302.347999,181.564 292.779999,181.564 Z M339.439999,131.056 L339.439999,139.796 L339.715999,139.796 C342.843999,132.988 347.259999,130.228 353.331999,130.228 C354.711999,130.228 355.723999,130.32 356.367999,130.596 L356.367999,143.2 L355.999999,143.2 C354.987999,143.016 353.975999,142.924 352.963999,142.924 C345.143999,142.832 339.991999,147.708 339.991999,157.276 L339.991999,180 L325.547999,180 L325.547999,131.056 L339.439999,131.056 Z M381.499999,181.472 C365.491999,181.472 355.647999,170.248 355.647999,155.62 C355.647999,140.9 365.859999,129.676 380.763999,129.676 C387.755999,129.676 393.275999,131.976 397.599999,135.932 C403.119999,141.268 405.603999,149.548 405.511999,159.208 L369.815999,159.208 C370.735999,166.568 374.691999,170.984 381.683999,170.984 C386.191999,170.984 389.043999,169.236 390.607999,166.2 L404.591999,166.2 C402.107999,174.848 394.103999,181.472 381.499999,181.472 Z M380.763999,139.888 C374.139999,139.888 370.827999,144.12 369.907999,150.836 L390.791999,150.836 C390.331999,144.028 386.467999,139.888 380.763999,139.888 Z M439.751999,180 C439.015999,178.896 438.371999,176.78 438.095999,174.02 L437.911999,174.02 C434.691999,178.528 430.643999,181.288 423.099999,181.288 C413.439999,181.288 406.355999,176.136 406.355999,166.476 C406.355999,155.62 414.911999,152.86 425.583999,151.572 C434.323999,150.376 437.911999,148.996 437.911999,145.316 C437.911999,141.82 435.611999,139.428 430.643999,139.428 C425.123999,139.428 422.455999,142.004 422.087999,145.868 L408.747999,145.868 C409.115999,137.496 415.923999,129.676 430.459999,129.676 C436.715999,129.676 441.131999,130.596 444.535999,132.62 C449.595999,135.564 451.987999,140.624 451.987999,147.248 L451.987999,172.364 C451.987999,176.228 452.539999,178.344 453.827999,179.172 L453.827999,180 L439.751999,180 Z M427.607999,171.812 C434.047999,171.812 438.279999,167.764 438.279999,162.428 L438.279999,156.08 C436.163999,157.368 433.035999,158.104 429.815999,158.84 C423.467999,160.22 420.431999,161.784 420.431999,166.016 C420.431999,170.248 423.651999,171.812 427.607999,171.812 Z M454.027999,140.256 L454.027999,131.056 L461.387999,131.056 L461.387999,115.416 L475.555999,115.416 L475.555999,131.056 L485.123999,131.056 L485.123999,140.256 L475.555999,140.256 L475.555999,164.544 C475.555999,168.224 477.579999,169.236 480.983999,169.236 C481.903999,169.236 483.375999,169.144 484.295999,169.052 L485.031999,169.052 L485.031999,179.816 C483.467999,180.092 480.523999,180.552 476.659999,180.552 C467.551999,180.552 461.387999,177.608 461.387999,167.672 L461.387999,140.256 L454.027999,140.256 Z M511.911998,181.564 C496.271998,181.564 485.967998,170.248 485.967998,155.62 C485.967998,140.9 496.271998,129.676 511.911998,129.676 C527.459998,129.676 537.671998,140.9 537.671998,155.62 C537.671998,170.248 527.459998,181.564 511.911998,181.564 Z M511.819998,171.076 C518.995998,171.076 523.043998,164.82 523.043998,155.62 C523.043998,146.328 518.995998,139.98 511.819998,139.98 C504.459998,139.98 500.595998,146.328 500.595998,155.62 C500.595998,164.82 504.459998,171.076 511.819998,171.076 Z M554.431998,131.056 L554.431998,139.796 L554.707998,139.796 C557.835998,132.988 562.251998,130.228 568.323998,130.228 C569.703998,130.228 570.715998,130.32 571.359998,130.596 L571.359998,143.2 L570.991998,143.2 C569.979998,143.016 568.967998,142.924 567.955998,142.924 C560.135998,142.832 554.983998,147.708 554.983998,157.276 L554.983998,180 L540.539998,180 L540.539998,131.056 L554.431998,131.056 Z M594.191998,181.564 C580.023998,181.564 571.467998,174.756 570.731998,164.912 L584.347998,164.912 C585.175998,169.512 588.671998,172.088 594.283998,172.088 C599.435998,172.088 602.379998,169.972 602.379998,166.476 C602.379998,162.06 596.583998,161.508 589.775998,160.22 C581.035998,158.564 572.203998,156.356 572.203998,144.948 C572.203998,134.92 581.311998,129.676 592.811998,129.676 C606.427998,129.676 613.235998,135.564 614.523998,144.12 L601.091998,144.12 C600.171998,140.624 597.411998,138.876 592.811998,138.876 C588.395998,138.876 585.543998,140.716 585.543998,143.844 C585.543998,147.524 590.879998,148.076 597.595998,149.272 C606.335998,150.836 616.271998,153.136 616.271998,165.464 C616.271998,176.044 606.887998,181.564 594.191998,181.564 Z" id="The-ultimate-Experie" fill="#FFFFFF" mask="url(#mask-4)"></path>
                        </g>
                        <g id="1" transform="translate(0.000000, 5.000000)">
                            <mask id="mask-6" fill="white">
                                <use xlink:href="#path-5"></use>
                            </mask>
                            <g id="Mask"></g>
                            <path d="M9.484,37.892 L9.484,24.552 L65.972,24.552 L65.972,37.892 L45.548,37.892 L45.548,93 L29.816,93 L29.816,37.892 L9.484,37.892 Z M83.2839999,43.412 C83.2839999,43.872 83.2839999,47.828 83.1919999,51.048 L83.4679999,51.048 C86.4119999,45.804 91.3799999,42.676 98.1879999,42.676 C108.952,42.676 115.208,49.852 115.208,60.8 L115.208,93 L100.856,93 L100.856,63.56 C100.856,58.224 98.0039999,54.636 92.6679999,54.636 C87.0559999,54.636 83.2839999,59.144 83.2839999,65.4 L83.2839999,93 L68.8399999,93 L68.8399999,24.552 L83.2839999,24.552 L83.2839999,43.412 Z M143.56,94.472 C127.552,94.472 117.708,83.248 117.708,68.62 C117.708,53.9 127.92,42.676 142.824,42.676 C149.816,42.676 155.336,44.976 159.66,48.932 C165.18,54.268 167.664,62.548 167.572,72.208 L131.876,72.208 C132.796,79.568 136.752,83.984 143.744,83.984 C148.252,83.984 151.104,82.236 152.668,79.2 L166.652,79.2 C164.168,87.848 156.164,94.472 143.56,94.472 Z M142.824,52.888 C136.2,52.888 132.888,57.12 131.968,63.836 L152.852,63.836 C152.392,57.028 148.528,52.888 142.824,52.888 Z M233.752,93 L220.044,93 L220.044,86.008 L219.768,86.008 C216.18,91.712 211.764,94.38 205.048,94.38 C193.916,94.38 187.844,87.204 187.844,76.44 L187.844,44.056 L202.288,44.056 L202.288,73.68 C202.288,79.108 204.956,82.236 210.108,82.236 C215.904,82.236 219.492,77.82 219.492,71.748 L219.492,44.056 L233.752,44.056 L233.752,93 Z M239.104,93 L239.104,24.552 L253.64,24.552 L253.64,93 L239.104,93 Z M256.047999,53.256 L256.047999,44.056 L263.407999,44.056 L263.407999,28.416 L277.575999,28.416 L277.575999,44.056 L287.143999,44.056 L287.143999,53.256 L277.575999,53.256 L277.575999,77.544 C277.575999,81.224 279.599999,82.236 283.003999,82.236 C283.923999,82.236 285.395999,82.144 286.315999,82.052 L287.051999,82.052 L287.051999,92.816 C285.487999,93.092 282.543999,93.552 278.679999,93.552 C269.571999,93.552 263.407999,90.608 263.407999,80.672 L263.407999,53.256 L256.047999,53.256 Z M290.195999,37.156 L290.195999,24.552 L304.823999,24.552 L304.823999,37.156 L290.195999,37.156 Z M290.287999,93 L290.287999,44.056 L304.731999,44.056 L304.731999,93 L290.287999,93 Z M309.899999,93 L309.899999,44.056 L323.791999,44.056 L323.791999,51.692 L324.067999,51.692 C327.195999,45.896 331.887999,42.676 338.787999,42.676 C345.227999,42.676 349.735999,45.896 352.219999,51.968 L352.403999,51.968 C356.451999,45.436 361.787999,42.676 367.951999,42.676 C378.807999,42.676 384.419999,49.852 384.419999,60.708 L384.419999,93 L370.067999,93 L370.067999,63.1 C370.067999,57.764 367.491999,54.544 362.799999,54.544 C357.647999,54.544 354.427999,58.868 354.427999,65.124 L354.427999,93 L339.983999,93 L339.983999,63.1 C339.983999,57.764 337.591999,54.544 332.807999,54.544 C327.747999,54.544 324.343999,58.868 324.343999,65.124 L324.343999,93 L309.899999,93 Z M420.591999,93 C419.855999,91.896 419.211999,89.78 418.935999,87.02 L418.751999,87.02 C415.531999,91.528 411.483999,94.288 403.939999,94.288 C394.279999,94.288 387.195999,89.136 387.195999,79.476 C387.195999,68.62 395.751999,65.86 406.423999,64.572 C415.163999,63.376 418.751999,61.996 418.751999,58.316 C418.751999,54.82 416.451999,52.428 411.483999,52.428 C405.963999,52.428 403.295999,55.004 402.927999,58.868 L389.587999,58.868 C389.955999,50.496 396.763999,42.676 411.299999,42.676 C417.555999,42.676 421.971999,43.596 425.375999,45.62 C430.435999,48.564 432.827999,53.624 432.827999,60.248 L432.827999,85.364 C432.827999,89.228 433.379999,91.344 434.667999,92.172 L434.667999,93 L420.591999,93 Z M408.447999,84.812 C414.887999,84.812 419.119999,80.764 419.119999,75.428 L419.119999,69.08 C417.003999,70.368 413.875999,71.104 410.655999,71.84 C404.307999,73.22 401.271999,74.784 401.271999,79.016 C401.271999,83.248 404.491999,84.812 408.447999,84.812 Z M434.867999,53.256 L434.867999,44.056 L442.227999,44.056 L442.227999,28.416 L456.395999,28.416 L456.395999,44.056 L465.963999,44.056 L465.963999,53.256 L456.395999,53.256 L456.395999,77.544 C456.395999,81.224 458.419999,82.236 461.823999,82.236 C462.743999,82.236 464.215999,82.144 465.135999,82.052 L465.871999,82.052 L465.871999,92.816 C464.307999,93.092 461.363999,93.552 457.499999,93.552 C448.391999,93.552 442.227999,90.608 442.227999,80.672 L442.227999,53.256 L434.867999,53.256 Z M492.659999,94.472 C476.651999,94.472 466.807999,83.248 466.807999,68.62 C466.807999,53.9 477.019999,42.676 491.923999,42.676 C498.915999,42.676 504.435999,44.976 508.759999,48.932 C514.279999,54.268 516.763999,62.548 516.671999,72.208 L480.975999,72.208 C481.895999,79.568 485.851999,83.984 492.843999,83.984 C497.351999,83.984 500.203999,82.236 501.767999,79.2 L515.751999,79.2 C513.267999,87.848 505.263999,94.472 492.659999,94.472 Z M491.923999,52.888 C485.299999,52.888 481.987999,57.12 481.067999,63.836 L501.951999,63.836 C501.491999,57.028 497.627999,52.888 491.923999,52.888 Z M12.796,193 L12.796,124.552 L64.132,124.552 L64.132,137.616 L28.436,137.616 L28.436,151.232 L59.348,151.232 L59.348,163.652 L28.436,163.652 L28.436,179.568 L64.776,179.568 L64.776,193 L12.796,193 Z M65.8039999,193 L83.0079999,167.332 L67.4599999,144.056 L83.9279999,144.056 L86.7799999,148.656 C89.1719999,152.704 91.9319999,159.052 91.9319999,159.052 L92.1159999,159.052 C92.1159999,159.052 94.8759999,152.704 97.0839999,148.656 L99.7519999,144.056 L115.024,144.056 L100.028,167.056 L117.232,193 L100.488,193 L96.7159999,186.744 C94.4159999,182.604 91.3799999,175.888 91.3799999,175.888 L91.1959999,175.888 C91.1959999,175.888 88.0679999,182.604 85.4919999,186.744 L81.5359999,193 L65.8039999,193 Z M119.18,209.284 L119.18,144.056 L133.072,144.056 L133.072,151.048 L133.348,151.048 C136.66,145.436 141.536,142.676 148.252,142.676 C161.224,142.676 169.32,153.532 169.32,168.528 C169.32,184.444 160.856,194.564 147.792,194.564 C141.352,194.564 136.2,191.712 133.348,186.928 L133.164,186.928 C133.348,188.768 133.624,192.356 133.624,197.6 L133.624,209.284 L119.18,209.284 Z M144.388,183.34 C150.92,183.34 154.692,177.728 154.692,168.988 C154.692,160.248 151.288,154.176 144.204,154.176 C136.752,154.176 133.164,160.708 133.164,168.988 C133.164,177.36 137.028,183.34 144.388,183.34 Z M195.74,194.472 C179.732,194.472 169.888,183.248 169.888,168.62 C169.888,153.9 180.1,142.676 195.004,142.676 C201.996,142.676 207.516,144.976 211.84,148.932 C217.36,154.268 219.844,162.548 219.752,172.208 L184.056,172.208 C184.976,179.568 188.932,183.984 195.924,183.984 C200.432,183.984 203.284,182.236 204.848,179.2 L218.832,179.2 C216.348,187.848 208.344,194.472 195.74,194.472 Z M195.004,152.888 C188.38,152.888 185.068,157.12 184.148,163.836 L205.032,163.836 C204.572,157.028 200.708,152.888 195.004,152.888 Z M236.512,144.056 L236.512,152.796 L236.788,152.796 C239.916,145.988 244.332,143.228 250.404,143.228 C251.784,143.228 252.796,143.32 253.44,143.596 L253.44,156.2 L253.072,156.2 C252.06,156.016 251.048,155.924 250.036,155.924 C242.216,155.832 237.064,160.708 237.064,170.276 L237.064,193 L222.62,193 L222.62,144.056 L236.512,144.056 Z M255.848,137.156 L255.848,124.552 L270.476,124.552 L270.476,137.156 L255.848,137.156 Z M255.94,193 L255.94,144.056 L270.384,144.056 L270.384,193 L255.94,193 Z M299.103999,194.472 C283.095999,194.472 273.251999,183.248 273.251999,168.62 C273.251999,153.9 283.463999,142.676 298.367999,142.676 C305.359999,142.676 310.879999,144.976 315.203999,148.932 C320.723999,154.268 323.207999,162.548 323.115999,172.208 L287.419999,172.208 C288.339999,179.568 292.295999,183.984 299.287999,183.984 C303.795999,183.984 306.647999,182.236 308.211999,179.2 L322.195999,179.2 C319.711999,187.848 311.707999,194.472 299.103999,194.472 Z M298.367999,152.888 C291.743999,152.888 288.431999,157.12 287.511999,163.836 L308.395999,163.836 C307.935999,157.028 304.071999,152.888 298.367999,152.888 Z M339.967999,144.056 L339.967999,151.508 L340.243999,151.508 C343.279999,145.62 348.523999,142.676 355.331999,142.676 C366.095999,142.676 372.351999,149.852 372.351999,160.8 L372.351999,193 L357.999999,193 L357.999999,163.56 C357.999999,158.224 355.147999,154.636 349.811999,154.636 C344.199999,154.636 340.427999,159.144 340.427999,165.4 L340.427999,193 L325.983999,193 L325.983999,144.056 L339.967999,144.056 Z M400.611999,194.564 C384.971999,194.564 374.851999,183.248 374.851999,168.62 C374.851999,153.9 384.879999,142.676 400.243999,142.676 C413.307999,142.676 421.403999,150.128 423.151999,160.8 L409.167999,160.8 C408.155999,156.292 405.211999,153.44 400.427999,153.44 C393.159999,153.44 389.479999,159.42 389.479999,168.62 C389.479999,177.544 393.159999,183.616 400.427999,183.616 C405.763999,183.616 408.983999,180.396 409.627999,174.784 L423.519999,174.784 C423.059999,185.916 414.227999,194.564 400.611999,194.564 Z M449.387999,194.472 C433.379999,194.472 423.535999,183.248 423.535999,168.62 C423.535999,153.9 433.747999,142.676 448.651999,142.676 C455.643999,142.676 461.163999,144.976 465.487999,148.932 C471.007999,154.268 473.491999,162.548 473.399999,172.208 L437.703999,172.208 C438.623999,179.568 442.579999,183.984 449.571999,183.984 C454.079999,183.984 456.931999,182.236 458.495999,179.2 L472.479999,179.2 C469.995999,187.848 461.991999,194.472 449.387999,194.472 Z M448.651999,152.888 C442.027999,152.888 438.715999,157.12 437.795999,163.836 L458.679999,163.836 C458.219999,157.028 454.355999,152.888 448.651999,152.888 Z M525.779999,194.564 C505.815999,194.564 492.199999,179.476 492.199999,159.052 C492.199999,138.628 505.355999,123.356 525.779999,123.356 C533.323999,123.356 539.855999,125.196 544.547999,128.692 C550.711999,133.2 554.299999,139.916 555.127999,147.644 L539.487999,147.644 C538.567999,141.204 533.415999,136.42 525.687999,136.42 C514.003999,136.42 508.207999,146.08 508.207999,159.052 C508.207999,172.116 515.015999,181.592 525.779999,181.592 C534.151999,181.592 539.303999,176.164 540.039999,169.08 L555.771999,169.08 C555.311999,175.888 552.183999,182.236 547.491999,186.836 C542.339999,191.896 535.347999,194.564 525.779999,194.564 Z M572.439999,144.056 L572.439999,152.796 L572.715999,152.796 C575.843999,145.988 580.259999,143.228 586.331999,143.228 C587.711999,143.228 588.723999,143.32 589.367999,143.596 L589.367999,156.2 L588.999999,156.2 C587.987999,156.016 586.975999,155.924 585.963999,155.924 C578.143999,155.832 572.991999,160.708 572.991999,170.276 L572.991999,193 L558.547999,193 L558.547999,144.056 L572.439999,144.056 Z M614.499999,194.472 C598.491999,194.472 588.647999,183.248 588.647999,168.62 C588.647999,153.9 598.859999,142.676 613.763999,142.676 C620.755999,142.676 626.275999,144.976 630.599999,148.932 C636.119999,154.268 638.603999,162.548 638.511999,172.208 L602.815999,172.208 C603.735999,179.568 607.691999,183.984 614.683999,183.984 C619.191999,183.984 622.043999,182.236 623.607999,179.2 L637.591999,179.2 C635.107999,187.848 627.103999,194.472 614.499999,194.472 Z M613.763999,152.888 C607.139999,152.888 603.827999,157.12 602.907999,163.836 L623.791999,163.836 C623.331999,157.028 619.467999,152.888 613.763999,152.888 Z M672.751999,193 C672.015999,191.896 671.371999,189.78 671.095999,187.02 L670.911999,187.02 C667.691999,191.528 663.643999,194.288 656.099999,194.288 C646.439999,194.288 639.355999,189.136 639.355999,179.476 C639.355999,168.62 647.911999,165.86 658.583999,164.572 C667.323999,163.376 670.911999,161.996 670.911999,158.316 C670.911999,154.82 668.611999,152.428 663.643999,152.428 C658.123999,152.428 655.455999,155.004 655.087999,158.868 L641.747999,158.868 C642.115999,150.496 648.923999,142.676 663.459999,142.676 C669.715999,142.676 674.131999,143.596 677.535999,145.62 C682.595999,148.564 684.987999,153.624 684.987999,160.248 L684.987999,185.364 C684.987999,189.228 685.539999,191.344 686.827999,192.172 L686.827999,193 L672.751999,193 Z M660.607999,184.812 C667.047999,184.812 671.279999,180.764 671.279999,175.428 L671.279999,169.08 C669.163999,170.368 666.035999,171.104 662.815999,171.84 C656.467999,173.22 653.431999,174.784 653.431999,179.016 C653.431999,183.248 656.651999,184.812 660.607999,184.812 Z M687.027999,153.256 L687.027999,144.056 L694.387999,144.056 L694.387999,128.416 L708.555999,128.416 L708.555999,144.056 L718.123999,144.056 L718.123999,153.256 L708.555999,153.256 L708.555999,177.544 C708.555999,181.224 710.579999,182.236 713.983999,182.236 C714.903999,182.236 716.375999,182.144 717.295999,182.052 L718.031999,182.052 L718.031999,192.816 C716.467999,193.092 713.523999,193.552 709.659999,193.552 C700.551999,193.552 694.387999,190.608 694.387999,180.672 L694.387999,153.256 L687.027999,153.256 Z M744.911998,194.564 C729.271998,194.564 718.967998,183.248 718.967998,168.62 C718.967998,153.9 729.271998,142.676 744.911998,142.676 C760.459998,142.676 770.671998,153.9 770.671998,168.62 C770.671998,183.248 760.459998,194.564 744.911998,194.564 Z M744.819998,184.076 C751.995998,184.076 756.043998,177.82 756.043998,168.62 C756.043998,159.328 751.995998,152.98 744.819998,152.98 C737.459998,152.98 733.595998,159.328 733.595998,168.62 C733.595998,177.82 737.459998,184.076 744.819998,184.076 Z M787.431998,144.056 L787.431998,152.796 L787.707998,152.796 C790.835998,145.988 795.251998,143.228 801.323998,143.228 C802.703998,143.228 803.715998,143.32 804.359998,143.596 L804.359998,156.2 L803.991998,156.2 C802.979998,156.016 801.967998,155.924 800.955998,155.924 C793.135998,155.832 787.983998,160.708 787.983998,170.276 L787.983998,193 L773.539998,193 L773.539998,144.056 L787.431998,144.056 Z M827.191998,194.564 C813.023998,194.564 804.467998,187.756 803.731998,177.912 L817.347998,177.912 C818.175998,182.512 821.671998,185.088 827.283998,185.088 C832.435998,185.088 835.379998,182.972 835.379998,179.476 C835.379998,175.06 829.583998,174.508 822.775998,173.22 C814.035998,171.564 805.203998,169.356 805.203998,157.948 C805.203998,147.92 814.311998,142.676 825.811998,142.676 C839.427998,142.676 846.235998,148.564 847.523998,157.12 L834.091998,157.12 C833.171998,153.624 830.411998,151.876 825.811998,151.876 C821.395998,151.876 818.543998,153.716 818.543998,156.844 C818.543998,160.524 823.879998,161.076 830.595998,162.272 C839.335998,163.836 849.271998,166.136 849.271998,178.464 C849.271998,189.044 839.887998,194.564 827.191998,194.564 Z" id="The-ultimate-Experie" fill="#FFFFFF" mask="url(#mask-6)"></path>
                        </g>
                        <rect id="Rectangle" stroke="#979797" opacity="0" fill-rule="nonzero" x="0.5" y="0.5" width="856" height="224"></rect>
                    </g>
                </g>
            </g>
        </g>
    </g>
</svg>