
<svg width="841px" height="186px" viewBox="0 0 841 186" version="1.1" xmlns="http://www.w3.org/2000/svg" xmlns:xlink="http://www.w3.org/1999/xlink">
    <g id="Diseño" stroke="none" stroke-width="1" fill="none" fill-rule="evenodd">
        <g id="coming-soon" transform="translate(-27.000000, -418.000000)">
            <g id="hero">
                <g id="txt" transform="translate(18.000000, 389.000000)">
                    <g id="1">
                        <path d="M9.484,42.892 L9.484,29.552 L65.972,29.552 L65.972,42.892 L45.548,42.892 L45.548,98 L29.816,98 L29.816,42.892 L9.484,42.892 Z M83.2839999,48.412 C83.2839999,48.872 83.2839999,52.828 83.1919999,56.048 L83.4679999,56.048 C86.4119999,50.804 91.3799999,47.676 98.1879999,47.676 C108.952,47.676 115.208,54.852 115.208,65.8 L115.208,98 L100.856,98 L100.856,68.56 C100.856,63.224 98.0039999,59.636 92.6679999,59.636 C87.0559999,59.636 83.2839999,64.144 83.2839999,70.4 L83.2839999,98 L68.8399999,98 L68.8399999,29.552 L83.2839999,29.552 L83.2839999,48.412 Z M143.56,99.472 C127.552,99.472 117.708,88.248 117.708,73.62 C117.708,58.9 127.92,47.676 142.824,47.676 C149.816,47.676 155.336,49.976 159.66,53.932 C165.18,59.268 167.664,67.548 167.572,77.208 L131.876,77.208 C132.796,84.568 136.752,88.984 143.744,88.984 C148.252,88.984 151.104,87.236 152.668,84.2 L166.652,84.2 C164.168,92.848 156.164,99.472 143.56,99.472 Z M142.824,57.888 C136.2,57.888 132.888,62.12 131.968,68.836 L152.852,68.836 C152.392,62.028 148.528,57.888 142.824,57.888 Z M233.752,98 L220.044,98 L220.044,91.008 L219.768,91.008 C216.18,96.712 211.764,99.38 205.048,99.38 C193.916,99.38 187.844,92.204 187.844,81.44 L187.844,49.056 L202.288,49.056 L202.288,78.68 C202.288,84.108 204.956,87.236 210.108,87.236 C215.904,87.236 219.492,82.82 219.492,76.748 L219.492,49.056 L233.752,49.056 L233.752,98 Z M239.104,98 L239.104,29.552 L253.64,29.552 L253.64,98 L239.104,98 Z M256.047999,58.256 L256.047999,49.056 L263.407999,49.056 L263.407999,33.416 L277.575999,33.416 L277.575999,49.056 L287.143999,49.056 L287.143999,58.256 L277.575999,58.256 L277.575999,82.544 C277.575999,86.224 279.599999,87.236 283.003999,87.236 C283.923999,87.236 285.395999,87.144 286.315999,87.052 L287.051999,87.052 L287.051999,97.816 C285.487999,98.092 282.543999,98.552 278.679999,98.552 C269.571999,98.552 263.407999,95.608 263.407999,85.672 L263.407999,58.256 L256.047999,58.256 Z M290.195999,42.156 L290.195999,29.552 L304.823999,29.552 L304.823999,42.156 L290.195999,42.156 Z M290.287999,98 L290.287999,49.056 L304.731999,49.056 L304.731999,98 L290.287999,98 Z M309.899999,98 L309.899999,49.056 L323.791999,49.056 L323.791999,56.692 L324.067999,56.692 C327.195999,50.896 331.887999,47.676 338.787999,47.676 C345.227999,47.676 349.735999,50.896 352.219999,56.968 L352.403999,56.968 C356.451999,50.436 361.787999,47.676 367.951999,47.676 C378.807999,47.676 384.419999,54.852 384.419999,65.708 L384.419999,98 L370.067999,98 L370.067999,68.1 C370.067999,62.764 367.491999,59.544 362.799999,59.544 C357.647999,59.544 354.427999,63.868 354.427999,70.124 L354.427999,98 L339.983999,98 L339.983999,68.1 C339.983999,62.764 337.591999,59.544 332.807999,59.544 C327.747999,59.544 324.343999,63.868 324.343999,70.124 L324.343999,98 L309.899999,98 Z M420.591999,98 C419.855999,96.896 419.211999,94.78 418.935999,92.02 L418.751999,92.02 C415.531999,96.528 411.483999,99.288 403.939999,99.288 C394.279999,99.288 387.195999,94.136 387.195999,84.476 C387.195999,73.62 395.751999,70.86 406.423999,69.572 C415.163999,68.376 418.751999,66.996 418.751999,63.316 C418.751999,59.82 416.451999,57.428 411.483999,57.428 C405.963999,57.428 403.295999,60.004 402.927999,63.868 L389.587999,63.868 C389.955999,55.496 396.763999,47.676 411.299999,47.676 C417.555999,47.676 421.971999,48.596 425.375999,50.62 C430.435999,53.564 432.827999,58.624 432.827999,65.248 L432.827999,90.364 C432.827999,94.228 433.379999,96.344 434.667999,97.172 L434.667999,98 L420.591999,98 Z M408.447999,89.812 C414.887999,89.812 419.119999,85.764 419.119999,80.428 L419.119999,74.08 C417.003999,75.368 413.875999,76.104 410.655999,76.84 C404.307999,78.22 401.271999,79.784 401.271999,84.016 C401.271999,88.248 404.491999,89.812 408.447999,89.812 Z M434.867999,58.256 L434.867999,49.056 L442.227999,49.056 L442.227999,33.416 L456.395999,33.416 L456.395999,49.056 L465.963999,49.056 L465.963999,58.256 L456.395999,58.256 L456.395999,82.544 C456.395999,86.224 458.419999,87.236 461.823999,87.236 C462.743999,87.236 464.215999,87.144 465.135999,87.052 L465.871999,87.052 L465.871999,97.816 C464.307999,98.092 461.363999,98.552 457.499999,98.552 C448.391999,98.552 442.227999,95.608 442.227999,85.672 L442.227999,58.256 L434.867999,58.256 Z M492.659999,99.472 C476.651999,99.472 466.807999,88.248 466.807999,73.62 C466.807999,58.9 477.019999,47.676 491.923999,47.676 C498.915999,47.676 504.435999,49.976 508.759999,53.932 C514.279999,59.268 516.763999,67.548 516.671999,77.208 L480.975999,77.208 C481.895999,84.568 485.851999,88.984 492.843999,88.984 C497.351999,88.984 500.203999,87.236 501.767999,84.2 L515.751999,84.2 C513.267999,92.848 505.263999,99.472 492.659999,99.472 Z M491.923999,57.888 C485.299999,57.888 481.987999,62.12 481.067999,68.836 L501.951999,68.836 C501.491999,62.028 497.627999,57.888 491.923999,57.888 Z M12.796,198 L12.796,129.552 L64.132,129.552 L64.132,142.616 L28.436,142.616 L28.436,156.232 L59.348,156.232 L59.348,168.652 L28.436,168.652 L28.436,184.568 L64.776,184.568 L64.776,198 L12.796,198 Z M65.8039999,198 L83.0079999,172.332 L67.4599999,149.056 L83.9279999,149.056 L86.7799999,153.656 C89.1719999,157.704 91.9319999,164.052 91.9319999,164.052 L92.1159999,164.052 C92.1159999,164.052 94.8759999,157.704 97.0839999,153.656 L99.7519999,149.056 L115.024,149.056 L100.028,172.056 L117.232,198 L100.488,198 L96.7159999,191.744 C94.4159999,187.604 91.3799999,180.888 91.3799999,180.888 L91.1959999,180.888 C91.1959999,180.888 88.0679999,187.604 85.4919999,191.744 L81.5359999,198 L65.8039999,198 Z M119.18,214.284 L119.18,149.056 L133.072,149.056 L133.072,156.048 L133.348,156.048 C136.66,150.436 141.536,147.676 148.252,147.676 C161.224,147.676 169.32,158.532 169.32,173.528 C169.32,189.444 160.856,199.564 147.792,199.564 C141.352,199.564 136.2,196.712 133.348,191.928 L133.164,191.928 C133.348,193.768 133.624,197.356 133.624,202.6 L133.624,214.284 L119.18,214.284 Z M144.388,188.34 C150.92,188.34 154.692,182.728 154.692,173.988 C154.692,165.248 151.288,159.176 144.204,159.176 C136.752,159.176 133.164,165.708 133.164,173.988 C133.164,182.36 137.028,188.34 144.388,188.34 Z M195.74,199.472 C179.732,199.472 169.888,188.248 169.888,173.62 C169.888,158.9 180.1,147.676 195.004,147.676 C201.996,147.676 207.516,149.976 211.84,153.932 C217.36,159.268 219.844,167.548 219.752,177.208 L184.056,177.208 C184.976,184.568 188.932,188.984 195.924,188.984 C200.432,188.984 203.284,187.236 204.848,184.2 L218.832,184.2 C216.348,192.848 208.344,199.472 195.74,199.472 Z M195.004,157.888 C188.38,157.888 185.068,162.12 184.148,168.836 L205.032,168.836 C204.572,162.028 200.708,157.888 195.004,157.888 Z M236.512,149.056 L236.512,157.796 L236.788,157.796 C239.916,150.988 244.332,148.228 250.404,148.228 C251.784,148.228 252.796,148.32 253.44,148.596 L253.44,161.2 L253.072,161.2 C252.06,161.016 251.048,160.924 250.036,160.924 C242.216,160.832 237.064,165.708 237.064,175.276 L237.064,198 L222.62,198 L222.62,149.056 L236.512,149.056 Z M255.848,142.156 L255.848,129.552 L270.476,129.552 L270.476,142.156 L255.848,142.156 Z M255.94,198 L255.94,149.056 L270.384,149.056 L270.384,198 L255.94,198 Z M299.103999,199.472 C283.095999,199.472 273.251999,188.248 273.251999,173.62 C273.251999,158.9 283.463999,147.676 298.367999,147.676 C305.359999,147.676 310.879999,149.976 315.203999,153.932 C320.723999,159.268 323.207999,167.548 323.115999,177.208 L287.419999,177.208 C288.339999,184.568 292.295999,188.984 299.287999,188.984 C303.795999,188.984 306.647999,187.236 308.211999,184.2 L322.195999,184.2 C319.711999,192.848 311.707999,199.472 299.103999,199.472 Z M298.367999,157.888 C291.743999,157.888 288.431999,162.12 287.511999,168.836 L308.395999,168.836 C307.935999,162.028 304.071999,157.888 298.367999,157.888 Z M339.967999,149.056 L339.967999,156.508 L340.243999,156.508 C343.279999,150.62 348.523999,147.676 355.331999,147.676 C366.095999,147.676 372.351999,154.852 372.351999,165.8 L372.351999,198 L357.999999,198 L357.999999,168.56 C357.999999,163.224 355.147999,159.636 349.811999,159.636 C344.199999,159.636 340.427999,164.144 340.427999,170.4 L340.427999,198 L325.983999,198 L325.983999,149.056 L339.967999,149.056 Z M400.611999,199.564 C384.971999,199.564 374.851999,188.248 374.851999,173.62 C374.851999,158.9 384.879999,147.676 400.243999,147.676 C413.307999,147.676 421.403999,155.128 423.151999,165.8 L409.167999,165.8 C408.155999,161.292 405.211999,158.44 400.427999,158.44 C393.159999,158.44 389.479999,164.42 389.479999,173.62 C389.479999,182.544 393.159999,188.616 400.427999,188.616 C405.763999,188.616 408.983999,185.396 409.627999,179.784 L423.519999,179.784 C423.059999,190.916 414.227999,199.564 400.611999,199.564 Z M449.387999,199.472 C433.379999,199.472 423.535999,188.248 423.535999,173.62 C423.535999,158.9 433.747999,147.676 448.651999,147.676 C455.643999,147.676 461.163999,149.976 465.487999,153.932 C471.007999,159.268 473.491999,167.548 473.399999,177.208 L437.703999,177.208 C438.623999,184.568 442.579999,188.984 449.571999,188.984 C454.079999,188.984 456.931999,187.236 458.495999,184.2 L472.479999,184.2 C469.995999,192.848 461.991999,199.472 449.387999,199.472 Z M448.651999,157.888 C442.027999,157.888 438.715999,162.12 437.795999,168.836 L458.679999,168.836 C458.219999,162.028 454.355999,157.888 448.651999,157.888 Z M525.779999,199.564 C505.815999,199.564 492.199999,184.476 492.199999,164.052 C492.199999,143.628 505.355999,128.356 525.779999,128.356 C533.323999,128.356 539.855999,130.196 544.547999,133.692 C550.711999,138.2 554.299999,144.916 555.127999,152.644 L539.487999,152.644 C538.567999,146.204 533.415999,141.42 525.687999,141.42 C514.003999,141.42 508.207999,151.08 508.207999,164.052 C508.207999,177.116 515.015999,186.592 525.779999,186.592 C534.151999,186.592 539.303999,181.164 540.039999,174.08 L555.771999,174.08 C555.311999,180.888 552.183999,187.236 547.491999,191.836 C542.339999,196.896 535.347999,199.564 525.779999,199.564 Z M572.439999,149.056 L572.439999,157.796 L572.715999,157.796 C575.843999,150.988 580.259999,148.228 586.331999,148.228 C587.711999,148.228 588.723999,148.32 589.367999,148.596 L589.367999,161.2 L588.999999,161.2 C587.987999,161.016 586.975999,160.924 585.963999,160.924 C578.143999,160.832 572.991999,165.708 572.991999,175.276 L572.991999,198 L558.547999,198 L558.547999,149.056 L572.439999,149.056 Z M614.499999,199.472 C598.491999,199.472 588.647999,188.248 588.647999,173.62 C588.647999,158.9 598.859999,147.676 613.763999,147.676 C620.755999,147.676 626.275999,149.976 630.599999,153.932 C636.119999,159.268 638.603999,167.548 638.511999,177.208 L602.815999,177.208 C603.735999,184.568 607.691999,188.984 614.683999,188.984 C619.191999,188.984 622.043999,187.236 623.607999,184.2 L637.591999,184.2 C635.107999,192.848 627.103999,199.472 614.499999,199.472 Z M613.763999,157.888 C607.139999,157.888 603.827999,162.12 602.907999,168.836 L623.791999,168.836 C623.331999,162.028 619.467999,157.888 613.763999,157.888 Z M672.751999,198 C672.015999,196.896 671.371999,194.78 671.095999,192.02 L670.911999,192.02 C667.691999,196.528 663.643999,199.288 656.099999,199.288 C646.439999,199.288 639.355999,194.136 639.355999,184.476 C639.355999,173.62 647.911999,170.86 658.583999,169.572 C667.323999,168.376 670.911999,166.996 670.911999,163.316 C670.911999,159.82 668.611999,157.428 663.643999,157.428 C658.123999,157.428 655.455999,160.004 655.087999,163.868 L641.747999,163.868 C642.115999,155.496 648.923999,147.676 663.459999,147.676 C669.715999,147.676 674.131999,148.596 677.535999,150.62 C682.595999,153.564 684.987999,158.624 684.987999,165.248 L684.987999,190.364 C684.987999,194.228 685.539999,196.344 686.827999,197.172 L686.827999,198 L672.751999,198 Z M660.607999,189.812 C667.047999,189.812 671.279999,185.764 671.279999,180.428 L671.279999,174.08 C669.163999,175.368 666.035999,176.104 662.815999,176.84 C656.467999,178.22 653.431999,179.784 653.431999,184.016 C653.431999,188.248 656.651999,189.812 660.607999,189.812 Z M687.027999,158.256 L687.027999,149.056 L694.387999,149.056 L694.387999,133.416 L708.555999,133.416 L708.555999,149.056 L718.123999,149.056 L718.123999,158.256 L708.555999,158.256 L708.555999,182.544 C708.555999,186.224 710.579999,187.236 713.983999,187.236 C714.903999,187.236 716.375999,187.144 717.295999,187.052 L718.031999,187.052 L718.031999,197.816 C716.467999,198.092 713.523999,198.552 709.659999,198.552 C700.551999,198.552 694.387999,195.608 694.387999,185.672 L694.387999,158.256 L687.027999,158.256 Z M744.911998,199.564 C729.271998,199.564 718.967998,188.248 718.967998,173.62 C718.967998,158.9 729.271998,147.676 744.911998,147.676 C760.459998,147.676 770.671998,158.9 770.671998,173.62 C770.671998,188.248 760.459998,199.564 744.911998,199.564 Z M744.819998,189.076 C751.995998,189.076 756.043998,182.82 756.043998,173.62 C756.043998,164.328 751.995998,157.98 744.819998,157.98 C737.459998,157.98 733.595998,164.328 733.595998,173.62 C733.595998,182.82 737.459998,189.076 744.819998,189.076 Z M787.431998,149.056 L787.431998,157.796 L787.707998,157.796 C790.835998,150.988 795.251998,148.228 801.323998,148.228 C802.703998,148.228 803.715998,148.32 804.359998,148.596 L804.359998,161.2 L803.991998,161.2 C802.979998,161.016 801.967998,160.924 800.955998,160.924 C793.135998,160.832 787.983998,165.708 787.983998,175.276 L787.983998,198 L773.539998,198 L773.539998,149.056 L787.431998,149.056 Z M827.191998,199.564 C813.023998,199.564 804.467998,192.756 803.731998,182.912 L817.347998,182.912 C818.175998,187.512 821.671998,190.088 827.283998,190.088 C832.435998,190.088 835.379998,187.972 835.379998,184.476 C835.379998,180.06 829.583998,179.508 822.775998,178.22 C814.035998,176.564 805.203998,174.356 805.203998,162.948 C805.203998,152.92 814.311998,147.676 825.811998,147.676 C839.427998,147.676 846.235998,153.564 847.523998,162.12 L834.091998,162.12 C833.171998,158.624 830.411998,156.876 825.811998,156.876 C821.395998,156.876 818.543998,158.716 818.543998,161.844 C818.543998,165.524 823.879998,166.076 830.595998,167.272 C839.335998,168.836 849.271998,171.136 849.271998,183.464 C849.271998,194.044 839.887998,199.564 827.191998,199.564 Z" id="The-ultimate-Experie" fill="#FFFFFF"></path>
                        <rect id="Rectangle" stroke="#979797" opacity="0" fill-rule="nonzero" x="0.5" y="0.5" width="856" height="224"></rect>
                    </g>
                </g>
            </g>
        </g>
    </g>
</svg>