<?xml version="1.0" standalone="no"?>
<!DOCTYPE svg PUBLIC "-//W3C//DTD SVG 20010904//EN"
 "http://www.w3.org/TR/2001/REC-SVG-20010904/DTD/svg10.dtd">
<svg version="1.0" xmlns="http://www.w3.org/2000/svg"
 width="150.000000pt" height="150.000000pt" viewBox="0 0 150.000000 150.000000"
 preserveAspectRatio="xMidYMid meet">
<metadata>
Created by potrace 1.11, written by Peter Selinger 2001-2013
</metadata>
<g transform="translate(0.000000,150.000000) scale(0.100000,-0.100000)"
fill="#000000" stroke="none">
<path d="M415 1230 c-1 -228 -2 -222 40 -222 43 0 42 -6 39 175 l-4 172 46
-170 c25 -93 48 -172 50 -174 2 -2 19 -5 39 -6 24 -1 36 3 39 14 3 9 21 79 41
156 20 77 40 149 44 160 4 10 6 -58 4 -152 -4 -181 -3 -187 43 -178 11 2 22 4
27 4 4 1 7 100 7 221 l0 220 -59 0 c-58 0 -60 -1 -69 -32 -9 -28 -23 -80 -26
-98 -17 -78 -52 -187 -56 -178 -4 7 -24 79 -45 161 l-38 147 -61 0 -61 0 0
-220z"/>
<path d="M952 1315 c-40 -18 -71 -76 -45 -86 9 -3 26 -4 37 -3 12 1 24 3 29 3
4 1 7 7 7 15 0 26 75 37 98 14 24 -24 11 -35 -65 -53 -116 -27 -155 -76 -121
-150 23 -51 108 -71 169 -40 43 23 113 172 105 227 -6 43 -21 63 -61 78 -37
14 -114 12 -153 -5z m138 -183 c0 -47 -36 -69 -102 -63 -20 1 -34 39 -20 53 8
8 88 34 115 37 4 1 7 -12 7 -27z"/>
<path d="M309 961 c-11 -4 -15 -20 -14 -58 2 -49 0 -53 -22 -53 -33 0 -33 -47
0 -55 22 -6 23 -10 22 -93 0 -48 1 -100 3 -115 5 -34 42 -54 97 -53 38 1 40 3
43 34 3 30 1 32 -27 32 -37 0 -42 15 -39 120 l3 75 33 0 c28 0 32 3 32 27 0
25 -3 28 -35 28 l-35 0 0 54 c0 48 -2 54 -23 58 -13 3 -30 2 -38 -1z"/>
<path d="M605 853 c-11 -3 -30 -15 -43 -26 -13 -12 -23 -17 -22 -12 6 27 -2
35 -35 35 l-36 0 3 -157 3 -156 33 -2 c23 -1 32 3 33 14 0 9 2 50 2 92 2 88
19 121 68 135 29 8 33 14 34 43 0 36 -7 42 -40 34z"/>
<path d="M723 846 c-35 -16 -70 -70 -52 -81 19 -12 69 -16 69 -6 0 39 91 57
110 22 5 -11 10 -22 10 -24 0 -3 -35 -13 -77 -22 -57 -13 -84 -25 -105 -45
-30 -30 -37 -75 -18 -111 24 -45 114 -63 169 -35 38 20 112 169 106 215 -7 51
-13 65 -37 80 -32 20 -136 24 -175 7z m137 -184 c0 -48 -57 -80 -106 -62 -25
10 -33 43 -13 56 10 6 93 31 112 33 4 1 7 -12 7 -27z"/>
<path d="M188 636 c-21 -42 -38 -82 -38 -89 0 -8 15 -13 43 -13 l42 -1 -3 71
c-1 39 -4 79 -5 89 -1 11 -18 -14 -39 -57z"/>
<path d="M788 418 l-38 -77 0 -145 0 -146 40 0 40 0 0 48 c0 35 5 54 18 65 10
10 21 17 24 17 3 0 25 -29 49 -65 43 -65 43 -65 90 -65 l48 0 -66 96 -65 96
58 59 58 59 -49 0 c-47 -1 -53 -4 -105 -55 l-55 -55 -5 123 -5 122 -37 -77z"/>
<path d="M1125 356 c-34 -15 -50 -32 -57 -63 -5 -18 -1 -22 28 -25 26 -3 39 1
54 19 32 37 110 28 110 -13 0 -7 -28 -17 -65 -24 -106 -20 -158 -69 -141 -134
16 -63 88 -91 163 -64 23 8 44 12 45 8 2 -5 14 -9 28 -10 45 -4 61 0 54 11 -4
7 -8 66 -9 133 -1 67 -5 128 -9 135 -23 37 -141 53 -201 27z m135 -184 c0 -38
-28 -62 -74 -64 -49 -2 -75 34 -43 60 10 8 71 25 110 31 4 1 7 -12 7 -27z"/>
<path d="M655 150 c-47 -92 -46 -100 10 -100 42 0 44 1 36 23 -4 12 -7 50 -6
85 0 34 -1 62 -2 62 -2 0 -19 -31 -38 -70z"/>
</g>
</svg>
