<?xml version="1.0" standalone="no"?>
<!DOCTYPE svg PUBLIC "-//W3C//DTD SVG 20010904//EN"
 "http://www.w3.org/TR/2001/REC-SVG-20010904/DTD/svg10.dtd">
<svg version="1.0" xmlns="http://www.w3.org/2000/svg"
 width="368.000000pt" height="368.000000pt" viewBox="0 0 368.000000 368.000000"
 preserveAspectRatio="xMidYMid meet">
<metadata>
Created by potrace 1.11, written by Peter Selinger 2001-2013
</metadata>
<g transform="translate(0.000000,368.000000) scale(0.100000,-0.100000)"
fill="#000000" stroke="none">
<path d="M419 1485 c0 -313 -2 -581 -5 -595 -10 -59 -35 -106 -71 -130 -34
-23 -45 -25 -160 -25 l-123 0 0 -207 c0 -115 3 -208 8 -209 4 0 16 -2 27 -4
40 -8 182 -18 255 -18 280 -2 430 72 494 243 41 110 44 176 42 859 l-1 656
-232 0 -233 0 -1 -570z"/>
<path d="M1594 1574 c-205 -36 -349 -143 -442 -329 -44 -87 -65 -176 -68 -295
-7 -234 65 -397 233 -528 35 -27 132 -79 168 -89 110 -31 271 -44 360 -28 230
41 412 189 469 383 14 48 14 52 -2 53 -9 0 -102 1 -207 1 -170 0 -191 -2 -200
-17 -42 -73 -104 -105 -193 -100 -74 4 -126 37 -151 96 -12 26 -21 63 -21 81
l0 33 391 -1 390 -1 -2 97 c-4 226 -59 380 -177 496 -130 127 -341 184 -548
148z m225 -337 c39 -26 79 -99 69 -129 -6 -18 -345 -19 -352 -1 -10 24 43 108
85 135 56 36 139 34 198 -5z"/>
<path d="M2937 1584 c-1 -2 -20 -5 -42 -8 -185 -22 -341 -115 -403 -239 -65
-130 -42 -302 51 -399 87 -89 203 -133 427 -164 134 -18 183 -34 204 -66 37
-56 -25 -99 -146 -102 -91 -3 -158 28 -193 89 l-26 43 -192 -1 -192 -2 3 -35
c4 -39 49 -144 78 -180 122 -150 293 -224 519 -222 231 2 423 85 501 219 55
93 64 211 23 318 -45 120 -200 233 -359 260 -51 9 -84 15 -110 20 -14 3 -48 9
-77 14 -61 12 -124 37 -135 54 -18 28 -8 57 25 73 44 23 165 26 212 4 39 -18
85 -58 85 -75 0 -8 55 -11 190 -11 l190 1 0 36 c0 99 -67 210 -165 275 -64 43
-169 79 -255 89 -63 8 -208 13 -213 9z"/>
</g>
</svg>
